solid Body1
 facet normal       -1        0        0
  outer loop
   vertex        1      1.5     27.1
   vertex        1      1.5     77.9
   vertex        1    10.25     77.9
  endloop
 endfacet
 facet normal       -1        0       -0
  outer loop
   vertex        1    10.25     77.9
   vertex        1    10.25     27.1
   vertex        1      1.5     27.1
  endloop
 endfacet
 facet normal        0        0       -1
  outer loop
   vertex        7      1.5     27.1
   vertex        1      1.5     27.1
   vertex        1    10.25     27.1
  endloop
 endfacet
 facet normal        0        0       -1
  outer loop
   vertex        1    10.25     27.1
   vertex        7    10.25     27.1
   vertex        7      1.5     27.1
  endloop
 endfacet
 facet normal        1        0        0
  outer loop
   vertex        7      1.5     77.9
   vertex        7      1.5     27.1
   vertex        7    10.25     27.1
  endloop
 endfacet
 facet normal        1        0       -0
  outer loop
   vertex        7    10.25     27.1
   vertex        7    10.25     77.9
   vertex        7      1.5     77.9
  endloop
 endfacet
 facet normal        0        0        1
  outer loop
   vertex        1      1.5     77.9
   vertex        7      1.5     77.9
   vertex        7    10.25     77.9
  endloop
 endfacet
 facet normal        0        0        1
  outer loop
   vertex        7    10.25     77.9
   vertex        1    10.25     77.9
   vertex        1      1.5     77.9
  endloop
 endfacet
 facet normal        0        1        0
  outer loop
   vertex        1    10.25     27.1
   vertex        1    10.25     77.9
   vertex        7    10.25     77.9
  endloop
 endfacet
 facet normal        0        1        0
  outer loop
   vertex        7    10.25     77.9
   vertex        7    10.25     27.1
   vertex        1    10.25     27.1
  endloop
 endfacet
 facet normal       -1        0        0
  outer loop
   vertex     16.9      1.5    79.85
   vertex     16.9      1.5    82.35
   vertex     16.9     6.75    82.35
  endloop
 endfacet
 facet normal       -1        0       -0
  outer loop
   vertex     16.9     6.75    82.35
   vertex     16.9     6.75    79.85
   vertex     16.9      1.5    79.85
  endloop
 endfacet
 facet normal        0        0       -1
  outer loop
   vertex     39.1      1.5    79.85
   vertex     16.9      1.5    79.85
   vertex     16.9     6.75    79.85
  endloop
 endfacet
 facet normal        0        0       -1
  outer loop
   vertex     16.9     6.75    79.85
   vertex     39.1     6.75    79.85
   vertex     39.1      1.5    79.85
  endloop
 endfacet
 facet normal        1        0        0
  outer loop
   vertex     39.1      1.5    82.35
   vertex     39.1      1.5    79.85
   vertex     39.1     6.75    79.85
  endloop
 endfacet
 facet normal        1        0       -0
  outer loop
   vertex     39.1     6.75    79.85
   vertex     39.1     6.75    82.35
   vertex     39.1      1.5    82.35
  endloop
 endfacet
 facet normal        0        0        1
  outer loop
   vertex     16.9      1.5    82.35
   vertex     39.1      1.5    82.35
   vertex     39.1     6.75    82.35
  endloop
 endfacet
 facet normal        0        0        1
  outer loop
   vertex     39.1     6.75    82.35
   vertex     16.9     6.75    82.35
   vertex     16.9      1.5    82.35
  endloop
 endfacet
 facet normal        0        1        0
  outer loop
   vertex     16.9     6.75    79.85
   vertex     16.9     6.75    82.35
   vertex     39.1     6.75    82.35
  endloop
 endfacet
 facet normal        0        1        0
  outer loop
   vertex     39.1     6.75    82.35
   vertex     39.1     6.75    79.85
   vertex     16.9     6.75    79.85
  endloop
 endfacet
 facet normal        0        0       -1
  outer loop
   vertex     19.9        0     70.4
   vertex     34.5        0     70.4
   vertex     34.5    -1.35     70.4
  endloop
 endfacet
 facet normal        0        0       -1
  outer loop
   vertex     34.5    -1.35     70.4
   vertex     19.9    -1.35     70.4
   vertex     19.9        0     70.4
  endloop
 endfacet
 facet normal       -1        0        0
  outer loop
   vertex     19.9    -1.35    87.42
   vertex     19.9        0    87.42
   vertex     19.9        0       85
  endloop
 endfacet
 facet normal       -1        0       -0
  outer loop
   vertex     19.9        0       85
   vertex     19.9        0     70.4
   vertex     19.9    -1.35     70.4
  endloop
 endfacet
 facet normal       -1       -0        0
  outer loop
   vertex     19.9        0       85
   vertex     19.9    -1.35     70.4
   vertex     19.9    -1.35    87.42
  endloop
 endfacet
 facet normal        0        0        1
  outer loop
   vertex     34.5        0    87.42
   vertex     19.9        0    87.42
   vertex     19.9    -1.35    87.42
  endloop
 endfacet
 facet normal        0        0        1
  outer loop
   vertex     19.9    -1.35    87.42
   vertex     34.5    -1.35    87.42
   vertex     34.5        0    87.42
  endloop
 endfacet
 facet normal        1        0        0
  outer loop
   vertex     34.5    -1.35     70.4
   vertex     34.5        0     70.4
   vertex     34.5        0       85
  endloop
 endfacet
 facet normal        1        0       -0
  outer loop
   vertex     34.5        0       85
   vertex     34.5        0    87.42
   vertex     34.5    -1.35    87.42
  endloop
 endfacet
 facet normal        1        0        0
  outer loop
   vertex     34.5        0       85
   vertex     34.5    -1.35    87.42
   vertex     34.5    -1.35     70.4
  endloop
 endfacet
 facet normal        0       -1        0
  outer loop
   vertex     19.9    -1.35    87.42
   vertex     19.9    -1.35     70.4
   vertex     34.5    -1.35     70.4
  endloop
 endfacet
 facet normal        0       -1        0
  outer loop
   vertex     34.5    -1.35     70.4
   vertex     34.5    -1.35    87.42
   vertex     19.9    -1.35    87.42
  endloop
 endfacet
 facet normal        0        1        0
  outer loop
   vertex     34.5        0    87.42
   vertex     34.5        0       85
   vertex     19.9        0       85
  endloop
 endfacet
 facet normal        0        1        0
  outer loop
   vertex     19.9        0       85
   vertex     19.9        0    87.42
   vertex     34.5        0    87.42
  endloop
 endfacet
 facet normal        0        0       -1
  outer loop
   vertex       56      1.5    70.65
   vertex     50.5      1.5    70.65
   vertex     50.5     3.95    70.65
  endloop
 endfacet
 facet normal        0        0       -1
  outer loop
   vertex     50.5     3.95    70.65
   vertex       56     3.95    70.65
   vertex       56      1.5    70.65
  endloop
 endfacet
 facet normal        0        0        1
  outer loop
   vertex     50.5      1.5    78.15
   vertex       56      1.5    78.15
   vertex       56     3.95    78.15
  endloop
 endfacet
 facet normal        0        0        1
  outer loop
   vertex       56     3.95    78.15
   vertex     50.5     3.95    78.15
   vertex     50.5      1.5    78.15
  endloop
 endfacet
 facet normal       -1        0        0
  outer loop
   vertex     50.5      1.5    70.65
   vertex     50.5      1.5    78.15
   vertex     50.5     3.95    78.15
  endloop
 endfacet
 facet normal       -1        0       -0
  outer loop
   vertex     50.5     3.95    78.15
   vertex     50.5     3.95    70.65
   vertex     50.5      1.5    70.65
  endloop
 endfacet
 facet normal        0        1        0
  outer loop
   vertex     50.5     3.95    70.65
   vertex     50.5     3.95    78.15
   vertex       56     3.95    78.15
  endloop
 endfacet
 facet normal        0        1        0
  outer loop
   vertex       56     3.95    78.15
   vertex       56     3.95    70.65
   vertex     50.5     3.95    70.65
  endloop
 endfacet
 facet normal        0        1        0
  outer loop
   vertex  2.22967      1.5  82.0262
   vertex 0.228361      1.5   83.148
   vertex  0.87868      1.5  84.1213
  endloop
 endfacet
 facet normal        0        1        0
  outer loop
   vertex  2.22967      1.5  82.0262
   vertex  0.87868      1.5  84.1213
   vertex  1.85195      1.5  84.7716
  endloop
 endfacet
 facet normal        0        1        0
  outer loop
   vertex  2.97381      1.5  82.7703
   vertex  2.52773      1.5  82.4723
   vertex  1.85195      1.5  84.7716
  endloop
 endfacet
 facet normal        0        1       -0
  outer loop
   vertex  2.22967      1.5  82.0262
   vertex  1.85195      1.5  84.7716
   vertex  2.52773      1.5  82.4723
  endloop
 endfacet
 facet normal       -0        1        0
  outer loop
   vertex  1.85195      1.5  84.7716
   vertex        3      1.5       85
   vertex  2.97381      1.5  82.7703
  endloop
 endfacet
 facet normal        0        1        0
  outer loop
   vertex 0.228361      1.5   83.148
   vertex  2.22967      1.5  82.0262
   vertex    2.125      1.5     81.5
  endloop
 endfacet
 facet normal        0        1        0
  outer loop
   vertex        0      1.5       82
   vertex        1      1.5     77.9
   vertex        1      1.5     27.1
  endloop
 endfacet
 facet normal        0        1       -0
  outer loop
   vertex        1      1.5     77.9
   vertex        0      1.5       82
   vertex  2.22967      1.5  80.9738
  endloop
 endfacet
 facet normal        0        1        0
  outer loop
   vertex        0      1.5       82
   vertex        1      1.5     27.1
   vertex        0      1.5        3
  endloop
 endfacet
 facet normal        0        1        0
  outer loop
   vertex    2.125      1.5     81.5
   vertex  2.22967      1.5  80.9738
   vertex        0      1.5       82
  endloop
 endfacet
 facet normal        0        1        0
  outer loop
   vertex  2.52773      1.5  80.5277
   vertex  2.97381      1.5  80.2297
   vertex        1      1.5     77.9
  endloop
 endfacet
 facet normal        0        1        0
  outer loop
   vertex  2.22967      1.5  80.9738
   vertex  2.52773      1.5  80.5277
   vertex        1      1.5     77.9
  endloop
 endfacet
 facet normal       -0        1        0
  outer loop
   vertex        0      1.5       82
   vertex 0.228361      1.5   83.148
   vertex    2.125      1.5     81.5
  endloop
 endfacet
 facet normal        0        1        0
  outer loop
   vertex      3.5      1.5   80.125
   vertex        1      1.5     77.9
   vertex  2.97381      1.5  80.2297
  endloop
 endfacet
 facet normal        0        1        0
  outer loop
   vertex  2.97381      1.5  82.7703
   vertex        3      1.5       85
   vertex      3.5      1.5   82.875
  endloop
 endfacet
 facet normal       -0        1       -0
  outer loop
   vertex      3.5      1.5   82.875
   vertex        3      1.5       85
   vertex  4.02619      1.5  82.7703
  endloop
 endfacet
 facet normal       -0        1       -0
  outer loop
   vertex  4.02619      1.5  82.7703
   vertex        3      1.5       85
   vertex  4.47227      1.5  82.4723
  endloop
 endfacet
 facet normal       -0        1       -0
  outer loop
   vertex    4.875      1.5     81.5
   vertex  4.77033      1.5  82.0262
   vertex        7      1.5     77.9
  endloop
 endfacet
 facet normal        0        1        0
  outer loop
   vertex     16.9      1.5    82.35
   vertex  4.77033      1.5  82.0262
   vertex  4.47227      1.5  82.4723
  endloop
 endfacet
 facet normal        0        1        0
  outer loop
   vertex        7      1.5     77.9
   vertex  4.77033      1.5  80.9738
   vertex    4.875      1.5     81.5
  endloop
 endfacet
 facet normal        0        1       -0
  outer loop
   vertex        7      1.5     77.9
   vertex  4.77033      1.5  82.0262
   vertex     16.9      1.5    82.35
  endloop
 endfacet
 facet normal        0        1        0
  outer loop
   vertex     16.9      1.5    82.35
   vertex  4.47227      1.5  82.4723
   vertex        3      1.5       85
  endloop
 endfacet
 facet normal       -0        1        0
  outer loop
   vertex  4.02619      1.5  80.2297
   vertex  4.47227      1.5  80.5277
   vertex        7      1.5     77.9
  endloop
 endfacet
 facet normal       -0        1        0
  outer loop
   vertex      3.5      1.5   80.125
   vertex  4.02619      1.5  80.2297
   vertex        7      1.5     77.9
  endloop
 endfacet
 facet normal        0        1        0
  outer loop
   vertex        7      1.5     27.1
   vertex        7      1.5     77.9
   vertex     16.9      1.5    79.85
  endloop
 endfacet
 facet normal        0        1        0
  outer loop
   vertex        7      1.5     77.9
   vertex  4.47227      1.5  80.5277
   vertex  4.77033      1.5  80.9738
  endloop
 endfacet
 facet normal        0        1        0
  outer loop
   vertex     16.9      1.5    79.85
   vertex    33.85      1.5       42
   vertex        7      1.5     27.1
  endloop
 endfacet
 facet normal       -0        1        0
  outer loop
   vertex    33.85      1.5       38
   vertex  39.3875      1.5       38
   vertex    37.75      1.5    19.15
  endloop
 endfacet
 facet normal        0        1       -0
  outer loop
   vertex    33.85      1.5       42
   vertex     16.9      1.5    79.85
   vertex     39.1      1.5    79.85
  endloop
 endfacet
 facet normal        0        1        0
  outer loop
   vertex     16.9      1.5    82.35
   vertex     16.9      1.5    79.85
   vertex        7      1.5     77.9
  endloop
 endfacet
 facet normal        0        1        0
  outer loop
   vertex        7      1.5     77.9
   vertex        1      1.5     77.9
   vertex      3.5      1.5   80.125
  endloop
 endfacet
 facet normal       -0        1        0
  outer loop
   vertex        3      1.5       85
   vertex       53      1.5       85
   vertex     16.9      1.5    82.35
  endloop
 endfacet
 facet normal        0        1        0
  outer loop
   vertex        7      1.5     27.1
   vertex    33.85      1.5       42
   vertex    33.85      1.5       38
  endloop
 endfacet
 facet normal        0        1        0
  outer loop
   vertex  2.22967      1.5  24.0262
   vertex    2.125      1.5     23.5
   vertex        1      1.5     27.1
  endloop
 endfacet
 facet normal        0        1        0
  outer loop
   vertex  2.22967      1.5  22.9738
   vertex     2.45      1.5     14.9
   vertex        1      1.5     27.1
  endloop
 endfacet
 facet normal        0        1       -0
  outer loop
   vertex  2.97381      1.5  24.7703
   vertex        1      1.5     27.1
   vertex      3.5      1.5   24.875
  endloop
 endfacet
 facet normal       -0        1        0
  outer loop
   vertex      3.5      1.5   24.875
   vertex        7      1.5     27.1
   vertex  4.02619      1.5  24.7703
  endloop
 endfacet
 facet normal        0        1        0
  outer loop
   vertex  2.97381      1.5  24.7703
   vertex  2.52773      1.5  24.4723
   vertex        1      1.5     27.1
  endloop
 endfacet
 facet normal        0        1       -0
  outer loop
   vertex  2.22967      1.5  24.0262
   vertex        1      1.5     27.1
   vertex  2.52773      1.5  24.4723
  endloop
 endfacet
 facet normal       -0        1       -0
  outer loop
   vertex 0.692404      1.5  1.08297
   vertex        0      1.5        3
   vertex     2.45      1.5 0.0508476
  endloop
 endfacet
 facet normal        0        1        0
  outer loop
   vertex        1      1.5     27.1
   vertex     2.45      1.5     14.9
   vertex        0      1.5        3
  endloop
 endfacet
 facet normal        0        1       -0
  outer loop
   vertex     2.45      1.5 0.0508476
   vertex        0      1.5        3
   vertex     2.45      1.5     14.9
  endloop
 endfacet
 facet normal        0        1        0
  outer loop
   vertex   49.875      1.5     34.5
   vertex       56      1.5       38
   vertex       56      1.5     34.5
  endloop
 endfacet
 facet normal        0        1        0
  outer loop
   vertex      3.5      1.5   22.125
   vertex     2.45      1.5     14.9
   vertex  2.97381      1.5  22.2297
  endloop
 endfacet
 facet normal       -0        1        0
  outer loop
   vertex      3.5      1.5   22.125
   vertex  4.02619      1.5  22.2297
   vertex     2.45      1.5     14.9
  endloop
 endfacet
 facet normal        0        1        0
  outer loop
   vertex  2.97381      1.5  22.2297
   vertex     2.45      1.5     14.9
   vertex  2.52773      1.5  22.5277
  endloop
 endfacet
 facet normal        0        1        0
  outer loop
   vertex  2.22967      1.5  22.9738
   vertex  2.52773      1.5  22.5277
   vertex     2.45      1.5     14.9
  endloop
 endfacet
 facet normal       -0        1        0
  outer loop
   vertex  39.3875      1.5       38
   vertex   44.925      1.5       38
   vertex    43.75      1.5     34.5
  endloop
 endfacet
 facet normal        0        1        0
  outer loop
   vertex        1      1.5     27.1
   vertex    2.125      1.5     23.5
   vertex  2.22967      1.5  22.9738
  endloop
 endfacet
 facet normal        0        1        0
  outer loop
   vertex  4.47227      1.5  22.5277
   vertex    15.55      1.5     14.9
   vertex     2.45      1.5     14.9
  endloop
 endfacet
 facet normal       -0        1        0
  outer loop
   vertex  4.77033      1.5  24.0262
   vertex        7      1.5     27.1
   vertex    4.875      1.5     23.5
  endloop
 endfacet
 facet normal        0        1        0
  outer loop
   vertex        7      1.5     27.1
   vertex  4.77033      1.5  24.0262
   vertex  4.47227      1.5  24.4723
  endloop
 endfacet
 facet normal        0        1        0
  outer loop
   vertex  4.77033      1.5  22.9738
   vertex    4.875      1.5     23.5
   vertex        7      1.5     27.1
  endloop
 endfacet
 facet normal        0        1        0
  outer loop
   vertex        7      1.5     27.1
   vertex    15.55      1.5     14.9
   vertex  4.77033      1.5  22.9738
  endloop
 endfacet
 facet normal        0        1       -0
  outer loop
   vertex  4.47227      1.5  24.4723
   vertex  4.02619      1.5  24.7703
   vertex        7      1.5     27.1
  endloop
 endfacet
 facet normal       -0        1        0
  outer loop
   vertex  4.47227      1.5  22.5277
   vertex  4.77033      1.5  22.9738
   vertex    15.55      1.5     14.9
  endloop
 endfacet
 facet normal       -0        1        0
  outer loop
   vertex    15.55      1.5     14.9
   vertex    20.45      1.5     14.9
   vertex    20.45      1.5        0
  endloop
 endfacet
 facet normal        0        1       -0
  outer loop
   vertex    15.55      1.5     14.9
   vertex        7      1.5     27.1
   vertex    20.45      1.5     14.9
  endloop
 endfacet
 facet normal        0        1        0
  outer loop
   vertex  39.3875      1.5       38
   vertex    43.75      1.5     34.5
   vertex    43.75      1.5     28.5
  endloop
 endfacet
 facet normal        0        1        0
  outer loop
   vertex    20.45      1.5        0
   vertex    15.55      1.5 -2.77556e-16
   vertex    15.55      1.5     14.9
  endloop
 endfacet
 facet normal       -0        1        0
  outer loop
   vertex    33.55      1.5     14.9
   vertex    37.75      1.5    19.15
   vertex    37.75      1.5 2.77556e-16
  endloop
 endfacet
 facet normal        0        1       -0
  outer loop
   vertex    33.55      1.5     14.9
   vertex    20.45      1.5     14.9
   vertex    33.85      1.5       38
  endloop
 endfacet
 facet normal        0        1        0
  outer loop
   vertex       56      1.5       38
   vertex   49.875      1.5     34.5
   vertex   44.925      1.5       38
  endloop
 endfacet
 facet normal        0        1        0
  outer loop
   vertex    37.75      1.5 2.77556e-16
   vertex    33.55      1.5        0
   vertex    33.55      1.5     14.9
  endloop
 endfacet
 facet normal        0        1        0
  outer loop
   vertex    33.85      1.5       38
   vertex    20.45      1.5     14.9
   vertex        7      1.5     27.1
  endloop
 endfacet
 facet normal        0        1        0
  outer loop
   vertex    37.75      1.5    19.15
   vertex    33.55      1.5     14.9
   vertex    33.85      1.5       38
  endloop
 endfacet
 facet normal        0        1        0
  outer loop
   vertex     2.45      1.5     14.9
   vertex  4.02619      1.5  22.2297
   vertex  4.47227      1.5  22.5277
  endloop
 endfacet
 facet normal       -0        1        0
  outer loop
   vertex        1      1.5     27.1
   vertex        7      1.5     27.1
   vertex      3.5      1.5   24.875
  endloop
 endfacet
 facet normal        0        1       -0
  outer loop
   vertex   44.925      1.5       42
   vertex    44.35      1.5     45.5
   vertex       56      1.5     45.5
  endloop
 endfacet
 facet normal        0        1        0
  outer loop
   vertex     39.1      1.5    82.35
   vertex  51.2297      1.5  82.0262
   vertex   51.125      1.5     81.5
  endloop
 endfacet
 facet normal        0        1       -0
  outer loop
   vertex  51.2297      1.5  82.0262
   vertex     39.1      1.5    82.35
   vertex  51.5277      1.5  82.4723
  endloop
 endfacet
 facet normal        0        1       -0
  outer loop
   vertex     50.5      1.5    78.15
   vertex     39.1      1.5    82.35
   vertex   51.125      1.5     81.5
  endloop
 endfacet
 facet normal        0        1        0
  outer loop
   vertex       53      1.5       85
   vertex     52.5      1.5   82.875
   vertex  51.9738      1.5  82.7703
  endloop
 endfacet
 facet normal        0        1        0
  outer loop
   vertex       53      1.5       85
   vertex  51.9738      1.5  82.7703
   vertex  51.5277      1.5  82.4723
  endloop
 endfacet
 facet normal        0        1        0
  outer loop
   vertex       53      1.5       85
   vertex  51.5277      1.5  82.4723
   vertex     39.1      1.5    82.35
  endloop
 endfacet
 facet normal        0        1        0
  outer loop
   vertex     50.5      1.5    78.15
   vertex   51.125      1.5     81.5
   vertex  51.2297      1.5  80.9738
  endloop
 endfacet
 facet normal        0        1       -0
  outer loop
   vertex    44.35      1.5     60.5
   vertex     39.1      1.5    79.85
   vertex     50.5      1.5    70.65
  endloop
 endfacet
 facet normal       -0        1        0
  outer loop
   vertex     39.1      1.5    79.85
   vertex     39.1      1.5    82.35
   vertex     50.5      1.5    78.15
  endloop
 endfacet
 facet normal        0        1       -0
  outer loop
   vertex     50.5      1.5    70.65
   vertex     39.1      1.5    79.85
   vertex     50.5      1.5    78.15
  endloop
 endfacet
 facet normal        0        1        0
  outer loop
   vertex    44.35      1.5     60.5
   vertex    44.35      1.5     45.5
   vertex    33.85      1.5       42
  endloop
 endfacet
 facet normal        0        1        0
  outer loop
   vertex     52.5      1.5   80.125
   vertex     50.5      1.5    78.15
   vertex  51.9738      1.5  80.2297
  endloop
 endfacet
 facet normal        0        1        0
  outer loop
   vertex  53.0262      1.5  80.2297
   vertex     50.5      1.5    78.15
   vertex     52.5      1.5   80.125
  endloop
 endfacet
 facet normal        0        1        0
  outer loop
   vertex  51.9738      1.5  80.2297
   vertex     50.5      1.5    78.15
   vertex  51.5277      1.5  80.5277
  endloop
 endfacet
 facet normal        0        1        0
  outer loop
   vertex  51.2297      1.5  80.9738
   vertex  51.5277      1.5  80.5277
   vertex     50.5      1.5    78.15
  endloop
 endfacet
 facet normal        0        1        0
  outer loop
   vertex       56      1.5     60.5
   vertex    44.35      1.5     60.5
   vertex     50.5      1.5    70.65
  endloop
 endfacet
 facet normal       -0        1        0
  outer loop
   vertex  53.0262      1.5  82.7703
   vertex   54.148      1.5  84.7716
   vertex  53.4723      1.5  82.4723
  endloop
 endfacet
 facet normal        0        1        0
  outer loop
   vertex   54.148      1.5  84.7716
   vertex  53.0262      1.5  82.7703
   vertex       53      1.5       85
  endloop
 endfacet
 facet normal        0        1        0
  outer loop
   vertex   54.148      1.5  84.7716
   vertex  55.1213      1.5  84.1213
   vertex  53.7703      1.5  82.0262
  endloop
 endfacet
 facet normal       -0        1        0
  outer loop
   vertex  53.7703      1.5  82.0262
   vertex  55.7716      1.5   83.148
   vertex   53.875      1.5     81.5
  endloop
 endfacet
 facet normal        0        1        0
  outer loop
   vertex  55.7716      1.5   83.148
   vertex  53.7703      1.5  82.0262
   vertex  55.1213      1.5  84.1213
  endloop
 endfacet
 facet normal        0        1        0
  outer loop
   vertex   54.148      1.5  84.7716
   vertex  53.7703      1.5  82.0262
   vertex  53.4723      1.5  82.4723
  endloop
 endfacet
 facet normal       -0        1        0
  outer loop
   vertex  53.4723      1.5  80.5277
   vertex  53.7703      1.5  80.9738
   vertex       56      1.5    78.15
  endloop
 endfacet
 facet normal       -0        1        0
  outer loop
   vertex  53.0262      1.5  80.2297
   vertex  53.4723      1.5  80.5277
   vertex       56      1.5    78.15
  endloop
 endfacet
 facet normal        0        1        0
  outer loop
   vertex       56      1.5       82
   vertex       56      1.5    78.15
   vertex  53.7703      1.5  80.9738
  endloop
 endfacet
 facet normal        0        1        0
  outer loop
   vertex       56      1.5       82
   vertex   53.875      1.5     81.5
   vertex  55.7716      1.5   83.148
  endloop
 endfacet
 facet normal        0        1        0
  outer loop
   vertex  53.7703      1.5  80.9738
   vertex   53.875      1.5     81.5
   vertex       56      1.5       82
  endloop
 endfacet
 facet normal        0        1        0
  outer loop
   vertex       56      1.5    78.15
   vertex     50.5      1.5    78.15
   vertex  53.0262      1.5  80.2297
  endloop
 endfacet
 facet normal        0        1        0
  outer loop
   vertex  53.0262      1.5  82.7703
   vertex     52.5      1.5   82.875
   vertex       53      1.5       85
  endloop
 endfacet
 facet normal        0        1       -0
  outer loop
   vertex     39.1      1.5    82.35
   vertex     16.9      1.5    82.35
   vertex       53      1.5       85
  endloop
 endfacet
 facet normal        0        1       -0
  outer loop
   vertex       56      1.5     60.5
   vertex     50.5      1.5    70.65
   vertex       56      1.5    70.65
  endloop
 endfacet
 facet normal        0        1        0
  outer loop
   vertex    33.85      1.5       42
   vertex    44.35      1.5     45.5
   vertex   44.925      1.5       42
  endloop
 endfacet
 facet normal        0        1       -0
  outer loop
   vertex  51.2297      1.5  24.0262
   vertex   49.875      1.5     28.5
   vertex  51.5277      1.5  24.4723
  endloop
 endfacet
 facet normal        0        1        0
  outer loop
   vertex  39.3875      1.5       38
   vertex    43.75      1.5     28.5
   vertex    37.75      1.5    19.15
  endloop
 endfacet
 facet normal        0        1       -0
  outer loop
   vertex  51.9738      1.5  24.7703
   vertex   49.875      1.5     28.5
   vertex     52.5      1.5   24.875
  endloop
 endfacet
 facet normal        0        1       -0
  outer loop
   vertex  53.0262      1.5  24.7703
   vertex     52.5      1.5   24.875
   vertex       56      1.5     28.5
  endloop
 endfacet
 facet normal        0        1        0
  outer loop
   vertex    43.75      1.5     34.5
   vertex   44.925      1.5       38
   vertex   49.875      1.5     34.5
  endloop
 endfacet
 facet normal        0        1        0
  outer loop
   vertex   51.125      1.5     23.5
   vertex    43.75      1.5     28.5
   vertex   49.875      1.5     28.5
  endloop
 endfacet
 facet normal        0        1        0
  outer loop
   vertex   51.125      1.5     23.5
   vertex  51.2297      1.5  22.9738
   vertex    43.75      1.5     28.5
  endloop
 endfacet
 facet normal        0        1        0
  outer loop
   vertex  51.5277      1.5  22.5277
   vertex  51.9738      1.5  22.2297
   vertex    53.65      1.5    19.15
  endloop
 endfacet
 facet normal       -0        1        0
  outer loop
   vertex     52.5      1.5   22.125
   vertex  53.0262      1.5  22.2297
   vertex    53.65      1.5    19.15
  endloop
 endfacet
 facet normal        0        1        0
  outer loop
   vertex  51.9738      1.5  22.2297
   vertex     52.5      1.5   22.125
   vertex    53.65      1.5    19.15
  endloop
 endfacet
 facet normal        0        1        0
  outer loop
   vertex  51.5277      1.5  22.5277
   vertex    37.75      1.5    19.15
   vertex  51.2297      1.5  22.9738
  endloop
 endfacet
 facet normal        0        1        0
  outer loop
   vertex  51.5277      1.5  22.5277
   vertex    53.65      1.5    19.15
   vertex    37.75      1.5    19.15
  endloop
 endfacet
 facet normal        0        1       -0
  outer loop
   vertex       56      1.5       42
   vertex   44.925      1.5       42
   vertex       56      1.5     45.5
  endloop
 endfacet
 facet normal        0        1        0
  outer loop
   vertex  51.9738      1.5  24.7703
   vertex  51.5277      1.5  24.4723
   vertex   49.875      1.5     28.5
  endloop
 endfacet
 facet normal        0        1        0
  outer loop
   vertex       56      1.5     28.5
   vertex  53.4723      1.5  24.4723
   vertex  53.0262      1.5  24.7703
  endloop
 endfacet
 facet normal       -0        1        0
  outer loop
   vertex   49.875      1.5     28.5
   vertex       56      1.5     28.5
   vertex     52.5      1.5   24.875
  endloop
 endfacet
 facet normal       -0        1        0
  outer loop
   vertex  53.4723      1.5  24.4723
   vertex       56      1.5     28.5
   vertex  53.7703      1.5  24.0262
  endloop
 endfacet
 facet normal        0        1       -0
  outer loop
   vertex    53.65      1.5    19.15
   vertex  53.4723      1.5  22.5277
   vertex  53.7703      1.5  22.9738
  endloop
 endfacet
 facet normal        0        1        0
  outer loop
   vertex       56      1.5        3
   vertex    53.65      1.5 0.0712631
   vertex    53.65      1.5    19.15
  endloop
 endfacet
 facet normal        0        1        0
  outer loop
   vertex    53.65      1.5    19.15
   vertex  53.0262      1.5  22.2297
   vertex  53.4723      1.5  22.5277
  endloop
 endfacet
 facet normal        0        1        0
  outer loop
   vertex       56      1.5     28.5
   vertex    53.65      1.5    19.15
   vertex   53.875      1.5     23.5
  endloop
 endfacet
 facet normal        0        1       -0
  outer loop
   vertex  55.3399      1.5   1.1225
   vertex    53.65      1.5 0.0712631
   vertex       56      1.5        3
  endloop
 endfacet
 facet normal        0        1        0
  outer loop
   vertex       56      1.5     28.5
   vertex       56      1.5        3
   vertex    53.65      1.5    19.15
  endloop
 endfacet
 facet normal        0        1        0
  outer loop
   vertex    53.65      1.5    19.15
   vertex  53.7703      1.5  22.9738
   vertex   53.875      1.5     23.5
  endloop
 endfacet
 facet normal       -0        1        0
  outer loop
   vertex  53.7703      1.5  24.0262
   vertex       56      1.5     28.5
   vertex   53.875      1.5     23.5
  endloop
 endfacet
 facet normal        0        1       -0
  outer loop
   vertex   51.125      1.5     23.5
   vertex   49.875      1.5     28.5
   vertex  51.2297      1.5  24.0262
  endloop
 endfacet
 facet normal        0        1        0
  outer loop
   vertex  51.2297      1.5  22.9738
   vertex    37.75      1.5    19.15
   vertex    43.75      1.5     28.5
  endloop
 endfacet
 facet normal        0        1        0
  outer loop
   vertex     39.1      1.5    79.85
   vertex    44.35      1.5     60.5
   vertex    33.85      1.5       42
  endloop
 endfacet
 facet normal        0        0        1
  outer loop
   vertex    44.35      1.5     60.5
   vertex       56      1.5     60.5
   vertex       56        8     60.5
  endloop
 endfacet
 facet normal        0        0        1
  outer loop
   vertex       56        8     60.5
   vertex    44.35        8     60.5
   vertex    44.35      1.5     60.5
  endloop
 endfacet
 facet normal       -1        0        0
  outer loop
   vertex    44.35      1.5     45.5
   vertex    44.35      1.5     60.5
   vertex    44.35        8     60.5
  endloop
 endfacet
 facet normal       -1        0       -0
  outer loop
   vertex    44.35        8     60.5
   vertex    44.35        8     45.5
   vertex    44.35      1.5     45.5
  endloop
 endfacet
 facet normal        0        0       -1
  outer loop
   vertex       56      1.5     45.5
   vertex    44.35      1.5     45.5
   vertex    44.35        8     45.5
  endloop
 endfacet
 facet normal        0        0       -1
  outer loop
   vertex    44.35        8     45.5
   vertex       56        8     45.5
   vertex       56      1.5     45.5
  endloop
 endfacet
 facet normal        0        1        0
  outer loop
   vertex    44.35        8     45.5
   vertex    44.35        8     60.5
   vertex       56        8     60.5
  endloop
 endfacet
 facet normal        0        1        0
  outer loop
   vertex       56        8     60.5
   vertex       56        8     45.5
   vertex    44.35        8     45.5
  endloop
 endfacet
 facet normal        0        0        1
  outer loop
   vertex    33.85      1.5       42
   vertex       56      1.5       42
   vertex       56        7       42
  endloop
 endfacet
 facet normal        0        0        1
  outer loop
   vertex       56        7       42
   vertex    33.85        7       42
   vertex    33.85      1.5       42
  endloop
 endfacet
 facet normal       -1        0        0
  outer loop
   vertex    33.85      1.5       38
   vertex    33.85      1.5       42
   vertex    33.85        7       42
  endloop
 endfacet
 facet normal       -1        0       -0
  outer loop
   vertex    33.85        7       42
   vertex    33.85        7       38
   vertex    33.85      1.5       38
  endloop
 endfacet
 facet normal        0        0       -1
  outer loop
   vertex       56      1.5       38
   vertex    33.85      1.5       38
   vertex    33.85        7       38
  endloop
 endfacet
 facet normal        0        0       -1
  outer loop
   vertex    33.85        7       38
   vertex       56        7       38
   vertex       56      1.5       38
  endloop
 endfacet
 facet normal        0        1        0
  outer loop
   vertex    33.85        7       38
   vertex    33.85        7       42
   vertex       56        7       42
  endloop
 endfacet
 facet normal        0        1        0
  outer loop
   vertex       56        7       42
   vertex       56        7       38
   vertex    33.85        7       38
  endloop
 endfacet
 facet normal        1        0        0
  outer loop
   vertex     58.5      1.5     34.5
   vertex     58.5      1.5     28.5
   vertex     58.5      7.5     28.5
  endloop
 endfacet
 facet normal        1        0       -0
  outer loop
   vertex     58.5      7.5     28.5
   vertex     58.5      7.5     34.5
   vertex     58.5      1.5     34.5
  endloop
 endfacet
 facet normal        0        0        1
  outer loop
   vertex    43.75      7.5     34.5
   vertex    43.75      1.5     34.5
   vertex       56      1.5     34.5
  endloop
 endfacet
 facet normal        0        0        1
  outer loop
   vertex       56      1.5     34.5
   vertex     58.5      1.5     34.5
   vertex     58.5      7.5     34.5
  endloop
 endfacet
 facet normal        0       -0        1
  outer loop
   vertex       56      1.5     34.5
   vertex     58.5      7.5     34.5
   vertex    43.75      7.5     34.5
  endloop
 endfacet
 facet normal       -1        0        0
  outer loop
   vertex    43.75      1.5     28.5
   vertex    43.75      1.5     34.5
   vertex    43.75      7.5     34.5
  endloop
 endfacet
 facet normal       -1        0       -0
  outer loop
   vertex    43.75      7.5     34.5
   vertex    43.75      7.5     28.5
   vertex    43.75      1.5     28.5
  endloop
 endfacet
 facet normal        0       -0       -1
  outer loop
   vertex     58.5      7.5     28.5
   vertex     58.5      1.5     28.5
   vertex       56      1.5     28.5
  endloop
 endfacet
 facet normal        0        0       -1
  outer loop
   vertex       56      1.5     28.5
   vertex    43.75      1.5     28.5
   vertex    43.75      7.5     28.5
  endloop
 endfacet
 facet normal        0        0       -1
  outer loop
   vertex       56      1.5     28.5
   vertex    43.75      7.5     28.5
   vertex     58.5      7.5     28.5
  endloop
 endfacet
 facet normal        0        1        0
  outer loop
   vertex    43.75      7.5     28.5
   vertex    43.75      7.5     34.5
   vertex     58.5      7.5     34.5
  endloop
 endfacet
 facet normal        0        1        0
  outer loop
   vertex     58.5      7.5     34.5
   vertex     58.5      7.5     28.5
   vertex    43.75      7.5     28.5
  endloop
 endfacet
 facet normal        0       -1        0
  outer loop
   vertex       56      1.5     34.5
   vertex       56      1.5     28.5
   vertex     58.5      1.5     28.5
  endloop
 endfacet
 facet normal        0       -1        0
  outer loop
   vertex     58.5      1.5     28.5
   vertex     58.5      1.5     34.5
   vertex       56      1.5     34.5
  endloop
 endfacet
 facet normal       -1        0        0
  outer loop
   vertex    20.45     17.5     -2.1
   vertex    20.45      1.5     -2.1
   vertex    20.45      1.5        0
  endloop
 endfacet
 facet normal       -1        0        0
  outer loop
   vertex    20.45      1.5        0
   vertex    20.45      1.5     14.9
   vertex    20.45     17.5     14.9
  endloop
 endfacet
 facet normal       -1        0        0
  outer loop
   vertex    20.45      1.5        0
   vertex    20.45     17.5     14.9
   vertex    20.45     17.5     -2.1
  endloop
 endfacet
 facet normal        0        0       -1
  outer loop
   vertex    33.55      1.5     -2.1
   vertex    20.45      1.5     -2.1
   vertex    20.45     17.5     -2.1
  endloop
 endfacet
 facet normal        0        0       -1
  outer loop
   vertex    20.45     17.5     -2.1
   vertex    33.55     17.5     -2.1
   vertex    33.55      1.5     -2.1
  endloop
 endfacet
 facet normal        1        0        0
  outer loop
   vertex    33.55     17.5     14.9
   vertex    33.55      1.5     14.9
   vertex    33.55      1.5        0
  endloop
 endfacet
 facet normal        1        0        0
  outer loop
   vertex    33.55      1.5        0
   vertex    33.55      1.5     -2.1
   vertex    33.55     17.5     -2.1
  endloop
 endfacet
 facet normal        1       -0        0
  outer loop
   vertex    33.55      1.5        0
   vertex    33.55     17.5     -2.1
   vertex    33.55     17.5     14.9
  endloop
 endfacet
 facet normal        0        0        1
  outer loop
   vertex    20.45      1.5     14.9
   vertex    33.55      1.5     14.9
   vertex    33.55     17.5     14.9
  endloop
 endfacet
 facet normal        0        0        1
  outer loop
   vertex    33.55     17.5     14.9
   vertex    20.45     17.5     14.9
   vertex    20.45      1.5     14.9
  endloop
 endfacet
 facet normal        0        1        0
  outer loop
   vertex    20.45     17.5     -2.1
   vertex    20.45     17.5     14.9
   vertex    33.55     17.5     14.9
  endloop
 endfacet
 facet normal        0        1        0
  outer loop
   vertex    33.55     17.5     14.9
   vertex    33.55     17.5     -2.1
   vertex    20.45     17.5     -2.1
  endloop
 endfacet
 facet normal        0       -1        0
  outer loop
   vertex    20.45      1.5        0
   vertex    20.45      1.5     -2.1
   vertex    33.55      1.5     -2.1
  endloop
 endfacet
 facet normal        0       -1        0
  outer loop
   vertex    33.55      1.5     -2.1
   vertex    33.55      1.5        0
   vertex    20.45      1.5        0
  endloop
 endfacet
 facet normal       -1        0        0
  outer loop
   vertex     2.45     17.5     -2.1
   vertex     2.45      1.5     -2.1
   vertex     2.45      1.5 0.0508476
  endloop
 endfacet
 facet normal       -1        0        0
  outer loop
   vertex     2.45      1.5 0.0508476
   vertex     2.45      1.5     14.9
   vertex     2.45     17.5     14.9
  endloop
 endfacet
 facet normal       -1        0        0
  outer loop
   vertex     2.45      1.5 0.0508476
   vertex     2.45     17.5     14.9
   vertex     2.45     17.5     -2.1
  endloop
 endfacet
 facet normal        0        0       -1
  outer loop
   vertex    15.55      1.5     -2.1
   vertex     2.45      1.5     -2.1
   vertex     2.45     17.5     -2.1
  endloop
 endfacet
 facet normal        0        0       -1
  outer loop
   vertex     2.45     17.5     -2.1
   vertex    15.55     17.5     -2.1
   vertex    15.55      1.5     -2.1
  endloop
 endfacet
 facet normal        1        0        0
  outer loop
   vertex    15.55     17.5     14.9
   vertex    15.55      1.5     14.9
   vertex    15.55      1.5 -2.77556e-16
  endloop
 endfacet
 facet normal        1        0        0
  outer loop
   vertex    15.55      1.5 -2.77556e-16
   vertex    15.55      1.5     -2.1
   vertex    15.55     17.5     -2.1
  endloop
 endfacet
 facet normal        1       -0        0
  outer loop
   vertex    15.55      1.5 -2.77556e-16
   vertex    15.55     17.5     -2.1
   vertex    15.55     17.5     14.9
  endloop
 endfacet
 facet normal        0        0        1
  outer loop
   vertex     2.45      1.5     14.9
   vertex    15.55      1.5     14.9
   vertex    15.55     17.5     14.9
  endloop
 endfacet
 facet normal        0        0        1
  outer loop
   vertex    15.55     17.5     14.9
   vertex     2.45     17.5     14.9
   vertex     2.45      1.5     14.9
  endloop
 endfacet
 facet normal        0        1        0
  outer loop
   vertex     2.45     17.5     -2.1
   vertex     2.45     17.5     14.9
   vertex    15.55     17.5     14.9
  endloop
 endfacet
 facet normal        0        1        0
  outer loop
   vertex    15.55     17.5     14.9
   vertex    15.55     17.5     -2.1
   vertex     2.45     17.5     -2.1
  endloop
 endfacet
 facet normal        0       -1        0
  outer loop
   vertex        3      1.5        0
   vertex    15.55      1.5     -2.1
   vertex    15.55      1.5 -2.77556e-16
  endloop
 endfacet
 facet normal        0       -1        0
  outer loop
   vertex     2.45      1.5 0.0508476
   vertex     2.45      1.5     -2.1
   vertex        3      1.5        0
  endloop
 endfacet
 facet normal        0       -1        0
  outer loop
   vertex    15.55      1.5     -2.1
   vertex        3      1.5        0
   vertex     2.45      1.5     -2.1
  endloop
 endfacet
 facet normal        0        0        1
  outer loop
   vertex    37.75      1.5    19.15
   vertex    53.65      1.5    19.15
   vertex    53.65       15    19.15
  endloop
 endfacet
 facet normal        0        0        1
  outer loop
   vertex    53.65       15    19.15
   vertex    37.75       15    19.15
   vertex    37.75      1.5    19.15
  endloop
 endfacet
 facet normal       -1        0        0
  outer loop
   vertex    37.75       15     -2.1
   vertex    37.75      1.5     -2.1
   vertex    37.75      1.5 2.77556e-16
  endloop
 endfacet
 facet normal       -1        0        0
  outer loop
   vertex    37.75      1.5 2.77556e-16
   vertex    37.75      1.5    19.15
   vertex    37.75       15    19.15
  endloop
 endfacet
 facet normal       -1        0        0
  outer loop
   vertex    37.75      1.5 2.77556e-16
   vertex    37.75       15    19.15
   vertex    37.75       15     -2.1
  endloop
 endfacet
 facet normal        0        0       -1
  outer loop
   vertex    53.65      1.5     -2.1
   vertex    37.75      1.5     -2.1
   vertex    37.75       15     -2.1
  endloop
 endfacet
 facet normal        0        0       -1
  outer loop
   vertex    37.75       15     -2.1
   vertex    53.65       15     -2.1
   vertex    53.65      1.5     -2.1
  endloop
 endfacet
 facet normal        1        0        0
  outer loop
   vertex    53.65       15    19.15
   vertex    53.65      1.5    19.15
   vertex    53.65      1.5 0.0712631
  endloop
 endfacet
 facet normal        1        0        0
  outer loop
   vertex    53.65      1.5 0.0712631
   vertex    53.65      1.5     -2.1
   vertex    53.65       15     -2.1
  endloop
 endfacet
 facet normal        1       -0        0
  outer loop
   vertex    53.65      1.5 0.0712631
   vertex    53.65       15     -2.1
   vertex    53.65       15    19.15
  endloop
 endfacet
 facet normal        0        1        0
  outer loop
   vertex    37.75       15     -2.1
   vertex    37.75       15    19.15
   vertex    53.65       15    19.15
  endloop
 endfacet
 facet normal        0        1        0
  outer loop
   vertex    53.65       15    19.15
   vertex    53.65       15     -2.1
   vertex    37.75       15     -2.1
  endloop
 endfacet
 facet normal        0       -1        0
  outer loop
   vertex       53      1.5        0
   vertex    53.65      1.5     -2.1
   vertex    53.65      1.5 0.0712631
  endloop
 endfacet
 facet normal        0       -1        0
  outer loop
   vertex    37.75      1.5 2.77556e-16
   vertex    37.75      1.5     -2.1
   vertex       53      1.5        0
  endloop
 endfacet
 facet normal        0       -1        0
  outer loop
   vertex    53.65      1.5     -2.1
   vertex       53      1.5        0
   vertex    37.75      1.5     -2.1
  endloop
 endfacet
 facet normal -0.980786        0 0.195087
  outer loop
   vertex  53.7703      1.5  22.9738
   vertex  53.7703        0  22.9738
   vertex   53.875        0     23.5
  endloop
 endfacet
 facet normal -0.55557        0  0.83147
  outer loop
   vertex  53.0262      1.5  22.2297
   vertex  53.0262        0  22.2297
   vertex  53.4723        0  22.5277
  endloop
 endfacet
 facet normal -0.831467        0 0.555574
  outer loop
   vertex  53.4723      1.5  22.5277
   vertex  53.4723        0  22.5277
   vertex  53.7703        0  22.9738
  endloop
 endfacet
 facet normal 0.195091        0 0.980785
  outer loop
   vertex  51.9738      1.5  22.2297
   vertex  51.9738        0  22.2297
   vertex     52.5        0   22.125
  endloop
 endfacet
 facet normal 0.831467        0 0.555574
  outer loop
   vertex  51.2297      1.5  22.9738
   vertex  51.2297        0  22.9738
   vertex  51.5277        0  22.5277
  endloop
 endfacet
 facet normal  0.55557        0  0.83147
  outer loop
   vertex  51.5277      1.5  22.5277
   vertex  51.5277        0  22.5277
   vertex  51.9738        0  22.2297
  endloop
 endfacet
 facet normal -0.195091        0 0.980785
  outer loop
   vertex     52.5      1.5   22.125
   vertex     52.5        0   22.125
   vertex  53.0262        0  22.2297
  endloop
 endfacet
 facet normal -0.980786        0 0.195087
  outer loop
   vertex   53.875        0     23.5
   vertex   53.875      1.5     23.5
   vertex  53.7703      1.5  22.9738
  endloop
 endfacet
 facet normal -0.55557        0  0.83147
  outer loop
   vertex  53.4723        0  22.5277
   vertex  53.4723      1.5  22.5277
   vertex  53.0262      1.5  22.2297
  endloop
 endfacet
 facet normal -0.831467        0 0.555574
  outer loop
   vertex  53.4723      1.5  22.5277
   vertex  53.7703        0  22.9738
   vertex  53.7703      1.5  22.9738
  endloop
 endfacet
 facet normal 0.195091       -0 0.980785
  outer loop
   vertex     52.5        0   22.125
   vertex     52.5      1.5   22.125
   vertex  51.9738      1.5  22.2297
  endloop
 endfacet
 facet normal 0.831467       -0 0.555574
  outer loop
   vertex  51.5277        0  22.5277
   vertex  51.5277      1.5  22.5277
   vertex  51.2297      1.5  22.9738
  endloop
 endfacet
 facet normal  0.55557        0  0.83147
  outer loop
   vertex  51.5277      1.5  22.5277
   vertex  51.9738        0  22.2297
   vertex  51.9738      1.5  22.2297
  endloop
 endfacet
 facet normal -0.195091        0 0.980785
  outer loop
   vertex     52.5      1.5   22.125
   vertex  53.0262        0  22.2297
   vertex  53.0262      1.5  22.2297
  endloop
 endfacet
 facet normal 0.980786        0 0.195087
  outer loop
   vertex  51.2297        0  22.9738
   vertex   51.125      1.5     23.5
   vertex   51.125        0     23.5
  endloop
 endfacet
 facet normal -0.980786        0 -0.195087
  outer loop
   vertex  53.7703      1.5  24.0262
   vertex   53.875      1.5     23.5
   vertex   53.875        0     23.5
  endloop
 endfacet
 facet normal 0.980786        0 -0.195087
  outer loop
   vertex  51.2297      1.5  24.0262
   vertex  51.2297        0  24.0262
   vertex   51.125        0     23.5
  endloop
 endfacet
 facet normal  0.55557        0 -0.83147
  outer loop
   vertex  51.9738      1.5  24.7703
   vertex  51.9738        0  24.7703
   vertex  51.5277        0  24.4723
  endloop
 endfacet
 facet normal 0.831467        0 -0.555574
  outer loop
   vertex  51.5277      1.5  24.4723
   vertex  51.5277        0  24.4723
   vertex  51.2297        0  24.0262
  endloop
 endfacet
 facet normal -0.195091       -0 -0.980785
  outer loop
   vertex  53.0262      1.5  24.7703
   vertex  53.0262        0  24.7703
   vertex     52.5        0   24.875
  endloop
 endfacet
 facet normal -0.831467       -0 -0.555574
  outer loop
   vertex  53.7703      1.5  24.0262
   vertex  53.7703        0  24.0262
   vertex  53.4723        0  24.4723
  endloop
 endfacet
 facet normal -0.55557       -0 -0.83147
  outer loop
   vertex  53.4723      1.5  24.4723
   vertex  53.4723        0  24.4723
   vertex  53.0262        0  24.7703
  endloop
 endfacet
 facet normal 0.195091        0 -0.980785
  outer loop
   vertex     52.5      1.5   24.875
   vertex     52.5        0   24.875
   vertex  51.9738        0  24.7703
  endloop
 endfacet
 facet normal 0.980786        0 -0.195087
  outer loop
   vertex   51.125        0     23.5
   vertex   51.125      1.5     23.5
   vertex  51.2297      1.5  24.0262
  endloop
 endfacet
 facet normal  0.55557        0 -0.83147
  outer loop
   vertex  51.5277        0  24.4723
   vertex  51.5277      1.5  24.4723
   vertex  51.9738      1.5  24.7703
  endloop
 endfacet
 facet normal 0.831467        0 -0.555574
  outer loop
   vertex  51.5277      1.5  24.4723
   vertex  51.2297        0  24.0262
   vertex  51.2297      1.5  24.0262
  endloop
 endfacet
 facet normal -0.195091        0 -0.980785
  outer loop
   vertex     52.5        0   24.875
   vertex     52.5      1.5   24.875
   vertex  53.0262      1.5  24.7703
  endloop
 endfacet
 facet normal -0.831467        0 -0.555574
  outer loop
   vertex  53.4723        0  24.4723
   vertex  53.4723      1.5  24.4723
   vertex  53.7703      1.5  24.0262
  endloop
 endfacet
 facet normal -0.55557        0 -0.83147
  outer loop
   vertex  53.4723      1.5  24.4723
   vertex  53.0262        0  24.7703
   vertex  53.0262      1.5  24.7703
  endloop
 endfacet
 facet normal 0.195091        0 -0.980785
  outer loop
   vertex     52.5      1.5   24.875
   vertex  51.9738        0  24.7703
   vertex  51.9738      1.5  24.7703
  endloop
 endfacet
 facet normal -0.980786       -0 -0.195087
  outer loop
   vertex  53.7703      1.5  24.0262
   vertex   53.875        0     23.5
   vertex  53.7703        0  24.0262
  endloop
 endfacet
 facet normal 0.980786       -0 0.195087
  outer loop
   vertex  51.2297        0  22.9738
   vertex  51.2297      1.5  22.9738
   vertex   51.125      1.5     23.5
  endloop
 endfacet
 facet normal -0.980785        0  0.19509
  outer loop
   vertex  4.77033      1.5  22.9738
   vertex  4.77033        0  22.9738
   vertex    4.875        0     23.5
  endloop
 endfacet
 facet normal -0.555571        0 0.831469
  outer loop
   vertex  4.02619      1.5  22.2297
   vertex  4.02619        0  22.2297
   vertex  4.47227        0  22.5277
  endloop
 endfacet
 facet normal -0.831469        0 0.555571
  outer loop
   vertex  4.47227      1.5  22.5277
   vertex  4.47227        0  22.5277
   vertex  4.77033        0  22.9738
  endloop
 endfacet
 facet normal  0.19509        0 0.980785
  outer loop
   vertex  2.97381      1.5  22.2297
   vertex  2.97381        0  22.2297
   vertex      3.5        0   22.125
  endloop
 endfacet
 facet normal 0.831469        0 0.555571
  outer loop
   vertex  2.22967      1.5  22.9738
   vertex  2.22967        0  22.9738
   vertex  2.52773        0  22.5277
  endloop
 endfacet
 facet normal 0.555571        0 0.831469
  outer loop
   vertex  2.52773      1.5  22.5277
   vertex  2.52773        0  22.5277
   vertex  2.97381        0  22.2297
  endloop
 endfacet
 facet normal -0.19509        0 0.980785
  outer loop
   vertex      3.5      1.5   22.125
   vertex      3.5        0   22.125
   vertex  4.02619        0  22.2297
  endloop
 endfacet
 facet normal -0.980785        0  0.19509
  outer loop
   vertex    4.875        0     23.5
   vertex    4.875      1.5     23.5
   vertex  4.77033      1.5  22.9738
  endloop
 endfacet
 facet normal -0.555571        0 0.831469
  outer loop
   vertex  4.47227        0  22.5277
   vertex  4.47227      1.5  22.5277
   vertex  4.02619      1.5  22.2297
  endloop
 endfacet
 facet normal -0.831469        0 0.555571
  outer loop
   vertex  4.47227      1.5  22.5277
   vertex  4.77033        0  22.9738
   vertex  4.77033      1.5  22.9738
  endloop
 endfacet
 facet normal  0.19509       -0 0.980785
  outer loop
   vertex      3.5        0   22.125
   vertex      3.5      1.5   22.125
   vertex  2.97381      1.5  22.2297
  endloop
 endfacet
 facet normal 0.831469       -0 0.555571
  outer loop
   vertex  2.52773        0  22.5277
   vertex  2.52773      1.5  22.5277
   vertex  2.22967      1.5  22.9738
  endloop
 endfacet
 facet normal 0.555571        0 0.831469
  outer loop
   vertex  2.52773      1.5  22.5277
   vertex  2.97381        0  22.2297
   vertex  2.97381      1.5  22.2297
  endloop
 endfacet
 facet normal -0.19509        0 0.980785
  outer loop
   vertex      3.5      1.5   22.125
   vertex  4.02619        0  22.2297
   vertex  4.02619      1.5  22.2297
  endloop
 endfacet
 facet normal 0.980785        0  0.19509
  outer loop
   vertex  2.22967        0  22.9738
   vertex    2.125      1.5     23.5
   vertex    2.125        0     23.5
  endloop
 endfacet
 facet normal -0.980785        0 -0.19509
  outer loop
   vertex  4.77033      1.5  24.0262
   vertex    4.875      1.5     23.5
   vertex    4.875        0     23.5
  endloop
 endfacet
 facet normal 0.980785        0 -0.19509
  outer loop
   vertex  2.22967      1.5  24.0262
   vertex  2.22967        0  24.0262
   vertex    2.125        0     23.5
  endloop
 endfacet
 facet normal 0.555571        0 -0.831469
  outer loop
   vertex  2.97381      1.5  24.7703
   vertex  2.97381        0  24.7703
   vertex  2.52773        0  24.4723
  endloop
 endfacet
 facet normal 0.831469        0 -0.555571
  outer loop
   vertex  2.52773      1.5  24.4723
   vertex  2.52773        0  24.4723
   vertex  2.22967        0  24.0262
  endloop
 endfacet
 facet normal -0.19509       -0 -0.980785
  outer loop
   vertex  4.02619      1.5  24.7703
   vertex  4.02619        0  24.7703
   vertex      3.5        0   24.875
  endloop
 endfacet
 facet normal -0.831469       -0 -0.555571
  outer loop
   vertex  4.77033      1.5  24.0262
   vertex  4.77033        0  24.0262
   vertex  4.47227        0  24.4723
  endloop
 endfacet
 facet normal -0.555571       -0 -0.831469
  outer loop
   vertex  4.47227      1.5  24.4723
   vertex  4.47227        0  24.4723
   vertex  4.02619        0  24.7703
  endloop
 endfacet
 facet normal  0.19509        0 -0.980785
  outer loop
   vertex      3.5      1.5   24.875
   vertex      3.5        0   24.875
   vertex  2.97381        0  24.7703
  endloop
 endfacet
 facet normal 0.980785        0 -0.19509
  outer loop
   vertex    2.125        0     23.5
   vertex    2.125      1.5     23.5
   vertex  2.22967      1.5  24.0262
  endloop
 endfacet
 facet normal 0.555571        0 -0.831469
  outer loop
   vertex  2.52773        0  24.4723
   vertex  2.52773      1.5  24.4723
   vertex  2.97381      1.5  24.7703
  endloop
 endfacet
 facet normal 0.831469        0 -0.555571
  outer loop
   vertex  2.52773      1.5  24.4723
   vertex  2.22967        0  24.0262
   vertex  2.22967      1.5  24.0262
  endloop
 endfacet
 facet normal -0.19509        0 -0.980785
  outer loop
   vertex      3.5        0   24.875
   vertex      3.5      1.5   24.875
   vertex  4.02619      1.5  24.7703
  endloop
 endfacet
 facet normal -0.831469        0 -0.555571
  outer loop
   vertex  4.47227        0  24.4723
   vertex  4.47227      1.5  24.4723
   vertex  4.77033      1.5  24.0262
  endloop
 endfacet
 facet normal -0.555571        0 -0.831469
  outer loop
   vertex  4.47227      1.5  24.4723
   vertex  4.02619        0  24.7703
   vertex  4.02619      1.5  24.7703
  endloop
 endfacet
 facet normal  0.19509        0 -0.980785
  outer loop
   vertex      3.5      1.5   24.875
   vertex  2.97381        0  24.7703
   vertex  2.97381      1.5  24.7703
  endloop
 endfacet
 facet normal -0.980785       -0 -0.19509
  outer loop
   vertex  4.77033      1.5  24.0262
   vertex    4.875        0     23.5
   vertex  4.77033        0  24.0262
  endloop
 endfacet
 facet normal 0.980785       -0  0.19509
  outer loop
   vertex  2.22967        0  22.9738
   vertex  2.22967      1.5  22.9738
   vertex    2.125      1.5     23.5
  endloop
 endfacet
 facet normal -0.980785        0  0.19509
  outer loop
   vertex  4.77033      1.5  80.9738
   vertex  4.77033        0  80.9738
   vertex    4.875        0     81.5
  endloop
 endfacet
 facet normal -0.555564        0 0.831474
  outer loop
   vertex  4.02619      1.5  80.2297
   vertex  4.02619        0  80.2297
   vertex  4.47227        0  80.5277
  endloop
 endfacet
 facet normal -0.83147        0 0.555569
  outer loop
   vertex  4.47227      1.5  80.5277
   vertex  4.47227        0  80.5277
   vertex  4.77033        0  80.9738
  endloop
 endfacet
 facet normal 0.195094        0 0.980785
  outer loop
   vertex  2.97381      1.5  80.2297
   vertex  2.97381        0  80.2297
   vertex      3.5        0   80.125
  endloop
 endfacet
 facet normal  0.83147        0 0.555569
  outer loop
   vertex  2.22967      1.5  80.9738
   vertex  2.22967        0  80.9738
   vertex  2.52773        0  80.5277
  endloop
 endfacet
 facet normal 0.555564        0 0.831474
  outer loop
   vertex  2.52773      1.5  80.5277
   vertex  2.52773        0  80.5277
   vertex  2.97381        0  80.2297
  endloop
 endfacet
 facet normal -0.195094        0 0.980785
  outer loop
   vertex      3.5      1.5   80.125
   vertex      3.5        0   80.125
   vertex  4.02619        0  80.2297
  endloop
 endfacet
 facet normal -0.980785        0  0.19509
  outer loop
   vertex    4.875        0     81.5
   vertex    4.875      1.5     81.5
   vertex  4.77033      1.5  80.9738
  endloop
 endfacet
 facet normal -0.555564        0 0.831474
  outer loop
   vertex  4.47227        0  80.5277
   vertex  4.47227      1.5  80.5277
   vertex  4.02619      1.5  80.2297
  endloop
 endfacet
 facet normal -0.83147        0 0.555569
  outer loop
   vertex  4.47227      1.5  80.5277
   vertex  4.77033        0  80.9738
   vertex  4.77033      1.5  80.9738
  endloop
 endfacet
 facet normal 0.195094       -0 0.980785
  outer loop
   vertex      3.5        0   80.125
   vertex      3.5      1.5   80.125
   vertex  2.97381      1.5  80.2297
  endloop
 endfacet
 facet normal  0.83147       -0 0.555569
  outer loop
   vertex  2.52773        0  80.5277
   vertex  2.52773      1.5  80.5277
   vertex  2.22967      1.5  80.9738
  endloop
 endfacet
 facet normal 0.555564        0 0.831474
  outer loop
   vertex  2.52773      1.5  80.5277
   vertex  2.97381        0  80.2297
   vertex  2.97381      1.5  80.2297
  endloop
 endfacet
 facet normal -0.195094        0 0.980785
  outer loop
   vertex      3.5      1.5   80.125
   vertex  4.02619        0  80.2297
   vertex  4.02619      1.5  80.2297
  endloop
 endfacet
 facet normal 0.980785        0  0.19509
  outer loop
   vertex  2.22967        0  80.9738
   vertex    2.125      1.5     81.5
   vertex    2.125        0     81.5
  endloop
 endfacet
 facet normal -0.980785        0 -0.19509
  outer loop
   vertex  4.77033      1.5  82.0262
   vertex    4.875      1.5     81.5
   vertex    4.875        0     81.5
  endloop
 endfacet
 facet normal 0.980785        0 -0.19509
  outer loop
   vertex  2.22967      1.5  82.0262
   vertex  2.22967        0  82.0262
   vertex    2.125        0     81.5
  endloop
 endfacet
 facet normal 0.555564        0 -0.831474
  outer loop
   vertex  2.97381      1.5  82.7703
   vertex  2.97381        0  82.7703
   vertex  2.52773        0  82.4723
  endloop
 endfacet
 facet normal  0.83147        0 -0.555569
  outer loop
   vertex  2.52773      1.5  82.4723
   vertex  2.52773        0  82.4723
   vertex  2.22967        0  82.0262
  endloop
 endfacet
 facet normal -0.195094       -0 -0.980785
  outer loop
   vertex  4.02619      1.5  82.7703
   vertex  4.02619        0  82.7703
   vertex      3.5        0   82.875
  endloop
 endfacet
 facet normal -0.83147       -0 -0.555569
  outer loop
   vertex  4.77033      1.5  82.0262
   vertex  4.77033        0  82.0262
   vertex  4.47227        0  82.4723
  endloop
 endfacet
 facet normal -0.555564       -0 -0.831474
  outer loop
   vertex  4.47227      1.5  82.4723
   vertex  4.47227        0  82.4723
   vertex  4.02619        0  82.7703
  endloop
 endfacet
 facet normal 0.195094        0 -0.980785
  outer loop
   vertex      3.5      1.5   82.875
   vertex      3.5        0   82.875
   vertex  2.97381        0  82.7703
  endloop
 endfacet
 facet normal 0.980785        0 -0.19509
  outer loop
   vertex    2.125        0     81.5
   vertex    2.125      1.5     81.5
   vertex  2.22967      1.5  82.0262
  endloop
 endfacet
 facet normal 0.555564        0 -0.831474
  outer loop
   vertex  2.52773        0  82.4723
   vertex  2.52773      1.5  82.4723
   vertex  2.97381      1.5  82.7703
  endloop
 endfacet
 facet normal  0.83147        0 -0.555569
  outer loop
   vertex  2.52773      1.5  82.4723
   vertex  2.22967        0  82.0262
   vertex  2.22967      1.5  82.0262
  endloop
 endfacet
 facet normal -0.195094        0 -0.980785
  outer loop
   vertex      3.5        0   82.875
   vertex      3.5      1.5   82.875
   vertex  4.02619      1.5  82.7703
  endloop
 endfacet
 facet normal -0.83147        0 -0.555569
  outer loop
   vertex  4.47227        0  82.4723
   vertex  4.47227      1.5  82.4723
   vertex  4.77033      1.5  82.0262
  endloop
 endfacet
 facet normal -0.555564        0 -0.831474
  outer loop
   vertex  4.47227      1.5  82.4723
   vertex  4.02619        0  82.7703
   vertex  4.02619      1.5  82.7703
  endloop
 endfacet
 facet normal 0.195094        0 -0.980785
  outer loop
   vertex      3.5      1.5   82.875
   vertex  2.97381        0  82.7703
   vertex  2.97381      1.5  82.7703
  endloop
 endfacet
 facet normal -0.980785       -0 -0.19509
  outer loop
   vertex  4.77033      1.5  82.0262
   vertex    4.875        0     81.5
   vertex  4.77033        0  82.0262
  endloop
 endfacet
 facet normal 0.980785       -0  0.19509
  outer loop
   vertex  2.22967        0  80.9738
   vertex  2.22967      1.5  80.9738
   vertex    2.125      1.5     81.5
  endloop
 endfacet
 facet normal -0.980786        0 0.195086
  outer loop
   vertex  53.7703      1.5  80.9738
   vertex  53.7703        0  80.9738
   vertex   53.875        0     81.5
  endloop
 endfacet
 facet normal -0.555563        0 0.831474
  outer loop
   vertex  53.0262      1.5  80.2297
   vertex  53.0262        0  80.2297
   vertex  53.4723        0  80.5277
  endloop
 endfacet
 facet normal -0.831468        0 0.555573
  outer loop
   vertex  53.4723      1.5  80.5277
   vertex  53.4723        0  80.5277
   vertex  53.7703        0  80.9738
  endloop
 endfacet
 facet normal 0.195095        0 0.980784
  outer loop
   vertex  51.9738      1.5  80.2297
   vertex  51.9738        0  80.2297
   vertex     52.5        0   80.125
  endloop
 endfacet
 facet normal 0.831468        0 0.555573
  outer loop
   vertex  51.2297      1.5  80.9738
   vertex  51.2297        0  80.9738
   vertex  51.5277        0  80.5277
  endloop
 endfacet
 facet normal 0.555563        0 0.831474
  outer loop
   vertex  51.5277      1.5  80.5277
   vertex  51.5277        0  80.5277
   vertex  51.9738        0  80.2297
  endloop
 endfacet
 facet normal -0.195095        0 0.980784
  outer loop
   vertex     52.5      1.5   80.125
   vertex     52.5        0   80.125
   vertex  53.0262        0  80.2297
  endloop
 endfacet
 facet normal -0.980786        0 0.195086
  outer loop
   vertex   53.875        0     81.5
   vertex   53.875      1.5     81.5
   vertex  53.7703      1.5  80.9738
  endloop
 endfacet
 facet normal -0.555563        0 0.831474
  outer loop
   vertex  53.4723        0  80.5277
   vertex  53.4723      1.5  80.5277
   vertex  53.0262      1.5  80.2297
  endloop
 endfacet
 facet normal -0.831468        0 0.555573
  outer loop
   vertex  53.4723      1.5  80.5277
   vertex  53.7703        0  80.9738
   vertex  53.7703      1.5  80.9738
  endloop
 endfacet
 facet normal 0.195095       -0 0.980784
  outer loop
   vertex     52.5        0   80.125
   vertex     52.5      1.5   80.125
   vertex  51.9738      1.5  80.2297
  endloop
 endfacet
 facet normal 0.831468       -0 0.555573
  outer loop
   vertex  51.5277        0  80.5277
   vertex  51.5277      1.5  80.5277
   vertex  51.2297      1.5  80.9738
  endloop
 endfacet
 facet normal 0.555563        0 0.831474
  outer loop
   vertex  51.5277      1.5  80.5277
   vertex  51.9738        0  80.2297
   vertex  51.9738      1.5  80.2297
  endloop
 endfacet
 facet normal -0.195095        0 0.980784
  outer loop
   vertex     52.5      1.5   80.125
   vertex  53.0262        0  80.2297
   vertex  53.0262      1.5  80.2297
  endloop
 endfacet
 facet normal 0.980786        0 0.195086
  outer loop
   vertex  51.2297        0  80.9738
   vertex   51.125      1.5     81.5
   vertex   51.125        0     81.5
  endloop
 endfacet
 facet normal -0.980786        0 -0.195086
  outer loop
   vertex  53.7703      1.5  82.0262
   vertex   53.875      1.5     81.5
   vertex   53.875        0     81.5
  endloop
 endfacet
 facet normal 0.980786        0 -0.195086
  outer loop
   vertex  51.2297      1.5  82.0262
   vertex  51.2297        0  82.0262
   vertex   51.125        0     81.5
  endloop
 endfacet
 facet normal 0.555563        0 -0.831474
  outer loop
   vertex  51.9738      1.5  82.7703
   vertex  51.9738        0  82.7703
   vertex  51.5277        0  82.4723
  endloop
 endfacet
 facet normal 0.831468        0 -0.555573
  outer loop
   vertex  51.5277      1.5  82.4723
   vertex  51.5277        0  82.4723
   vertex  51.2297        0  82.0262
  endloop
 endfacet
 facet normal -0.195095       -0 -0.980784
  outer loop
   vertex  53.0262      1.5  82.7703
   vertex  53.0262        0  82.7703
   vertex     52.5        0   82.875
  endloop
 endfacet
 facet normal -0.831468       -0 -0.555573
  outer loop
   vertex  53.7703      1.5  82.0262
   vertex  53.7703        0  82.0262
   vertex  53.4723        0  82.4723
  endloop
 endfacet
 facet normal -0.555563       -0 -0.831474
  outer loop
   vertex  53.4723      1.5  82.4723
   vertex  53.4723        0  82.4723
   vertex  53.0262        0  82.7703
  endloop
 endfacet
 facet normal 0.195095        0 -0.980784
  outer loop
   vertex     52.5      1.5   82.875
   vertex     52.5        0   82.875
   vertex  51.9738        0  82.7703
  endloop
 endfacet
 facet normal 0.980786        0 -0.195086
  outer loop
   vertex   51.125        0     81.5
   vertex   51.125      1.5     81.5
   vertex  51.2297      1.5  82.0262
  endloop
 endfacet
 facet normal 0.555563        0 -0.831474
  outer loop
   vertex  51.5277        0  82.4723
   vertex  51.5277      1.5  82.4723
   vertex  51.9738      1.5  82.7703
  endloop
 endfacet
 facet normal 0.831468        0 -0.555573
  outer loop
   vertex  51.5277      1.5  82.4723
   vertex  51.2297        0  82.0262
   vertex  51.2297      1.5  82.0262
  endloop
 endfacet
 facet normal -0.195095        0 -0.980784
  outer loop
   vertex     52.5        0   82.875
   vertex     52.5      1.5   82.875
   vertex  53.0262      1.5  82.7703
  endloop
 endfacet
 facet normal -0.831468        0 -0.555573
  outer loop
   vertex  53.4723        0  82.4723
   vertex  53.4723      1.5  82.4723
   vertex  53.7703      1.5  82.0262
  endloop
 endfacet
 facet normal -0.555563        0 -0.831474
  outer loop
   vertex  53.4723      1.5  82.4723
   vertex  53.0262        0  82.7703
   vertex  53.0262      1.5  82.7703
  endloop
 endfacet
 facet normal 0.195095        0 -0.980784
  outer loop
   vertex     52.5      1.5   82.875
   vertex  51.9738        0  82.7703
   vertex  51.9738      1.5  82.7703
  endloop
 endfacet
 facet normal -0.980786       -0 -0.195086
  outer loop
   vertex  53.7703      1.5  82.0262
   vertex   53.875        0     81.5
   vertex  53.7703        0  82.0262
  endloop
 endfacet
 facet normal 0.980786       -0 0.195086
  outer loop
   vertex  51.2297        0  80.9738
   vertex  51.2297      1.5  80.9738
   vertex   51.125      1.5     81.5
  endloop
 endfacet
 facet normal -1.82004e-17 1.4803e-15       -1
  outer loop
   vertex       53      1.5        0
   vertex       53        0 -2.22045e-15
   vertex    37.75      1.5 2.77556e-16
  endloop
 endfacet
 facet normal 6.60847e-17 2.3372e-15       -1
  outer loop
   vertex    33.55      1.5        0
   vertex    37.75      1.5 2.77556e-16
   vertex       53        0 -2.22045e-15
  endloop
 endfacet
 facet normal -3.33067e-17 1.04842e-15       -1
  outer loop
   vertex       53        0 -2.22045e-15
   vertex        3        0 -5.55112e-16
   vertex    33.55      1.5        0
  endloop
 endfacet
 facet normal 5.6644e-17 -2.88885e-16       -1
  outer loop
   vertex    20.45      1.5        0
   vertex        3        0 -5.55112e-16
   vertex    15.55      1.5 -2.77556e-16
  endloop
 endfacet
 facet normal        0 3.70074e-16       -1
  outer loop
   vertex        3        0 -5.55112e-16
   vertex    20.45      1.5        0
   vertex    33.55      1.5        0
  endloop
 endfacet
 facet normal -2.2116e-17 3.70074e-16       -1
  outer loop
   vertex        3      1.5        0
   vertex    15.55      1.5 -2.77556e-16
   vertex        3        0 -5.55112e-16
  endloop
 endfacet
 facet normal 0.980785        0 -0.195092
  outer loop
   vertex       56        0        3
   vertex  55.7716        0  1.85195
   vertex       56      1.5        3
  endloop
 endfacet
 facet normal 0.937705 0.109582 -0.329698
  outer loop
   vertex  55.3399      1.5   1.1225
   vertex       56      1.5        3
   vertex  55.7716        0  1.85195
  endloop
 endfacet
 facet normal 0.831075 -0.0308246 -0.555306
  outer loop
   vertex  55.7716        0  1.85195
   vertex  55.1213        0  0.87868
   vertex  55.3399      1.5   1.1225
  endloop
 endfacet
 facet normal 0.526254 0.086134 -0.845954
  outer loop
   vertex   54.148        0 0.228361
   vertex    53.65      1.5 0.0712631
   vertex  55.3399      1.5   1.1225
  endloop
 endfacet
 facet normal 0.108982 1.47148e-15 -0.994044
  outer loop
   vertex    53.65      1.5 0.0712631
   vertex       53        0 -2.22045e-15
   vertex       53      1.5        0
  endloop
 endfacet
 facet normal  0.19495 -0.0379163 -0.98008
  outer loop
   vertex       53        0 -2.22045e-15
   vertex    53.65      1.5 0.0712631
   vertex   54.148        0 0.228361
  endloop
 endfacet
 facet normal 0.554756 0.0541271 -0.830251
  outer loop
   vertex   54.148        0 0.228361
   vertex  55.3399      1.5   1.1225
   vertex  55.1213        0  0.87868
  endloop
 endfacet
 facet normal        1        0        0
  outer loop
   vertex       56     4.75     60.5
   vertex       56      1.5     60.5
   vertex       56     4.75     45.5
  endloop
 endfacet
 facet normal        1        0        0
  outer loop
   vertex       56      1.5       82
   vertex       56        0       82
   vertex       56      1.5    78.15
  endloop
 endfacet
 facet normal        1        0        0
  outer loop
   vertex       56      1.5    78.15
   vertex       56      1.5    70.65
   vertex       56     3.95    70.65
  endloop
 endfacet
 facet normal        1        0       -0
  outer loop
   vertex       56      1.5    70.65
   vertex       56      1.5    78.15
   vertex       56        0       82
  endloop
 endfacet
 facet normal        1        0        0
  outer loop
   vertex       56        0       82
   vertex       56      1.5     60.5
   vertex       56      1.5    70.65
  endloop
 endfacet
 facet normal        1        0        0
  outer loop
   vertex       56     3.95    78.15
   vertex       56      1.5    78.15
   vertex       56     3.95    70.65
  endloop
 endfacet
 facet normal        1        0       -0
  outer loop
   vertex       56      1.5     45.5
   vertex       56      1.5     60.5
   vertex       56        0       82
  endloop
 endfacet
 facet normal        1        0        0
  outer loop
   vertex       56     4.75     45.5
   vertex       56      1.5     60.5
   vertex       56      1.5     45.5
  endloop
 endfacet
 facet normal        1        0        0
  outer loop
   vertex       56        0       82
   vertex       56      1.5       42
   vertex       56      1.5     45.5
  endloop
 endfacet
 facet normal        1        0        0
  outer loop
   vertex       56      1.5       42
   vertex       56      1.5       38
   vertex       56        7       38
  endloop
 endfacet
 facet normal        1        0       -0
  outer loop
   vertex       56      1.5       38
   vertex       56      1.5       42
   vertex       56        0        3
  endloop
 endfacet
 facet normal        1        0        0
  outer loop
   vertex       56      1.5     34.5
   vertex       56        0        3
   vertex       56      1.5     28.5
  endloop
 endfacet
 facet normal        1        0        0
  outer loop
   vertex       56        0        3
   vertex       56      1.5     34.5
   vertex       56      1.5       38
  endloop
 endfacet
 facet normal        1        0        0
  outer loop
   vertex       56      1.5       42
   vertex       56        0       82
   vertex       56        0        3
  endloop
 endfacet
 facet normal        1        0        0
  outer loop
   vertex       56    6.375     45.5
   vertex       56        8     45.5
   vertex       56        8     60.5
  endloop
 endfacet
 facet normal        1        0       -0
  outer loop
   vertex       56        7       38
   vertex       56        7       42
   vertex       56      1.5       42
  endloop
 endfacet
 facet normal        1        0       -0
  outer loop
   vertex       56      1.5        3
   vertex       56      1.5     28.5
   vertex       56        0        3
  endloop
 endfacet
 facet normal        1        0        0
  outer loop
   vertex       56        8     60.5
   vertex       56     4.75     60.5
   vertex       56    6.375     45.5
  endloop
 endfacet
 facet normal        1        0        0
  outer loop
   vertex       56     4.75     45.5
   vertex       56    6.375     45.5
   vertex       56     4.75     60.5
  endloop
 endfacet
 facet normal 0.195092        0 0.980785
  outer loop
   vertex       53        0       85
   vertex   54.148        0  84.7716
   vertex   54.148      1.5  84.7716
  endloop
 endfacet
 facet normal 0.195092       -0 0.980785
  outer loop
   vertex       53        0       85
   vertex   54.148      1.5  84.7716
   vertex       53      1.5       85
  endloop
 endfacet
 facet normal 0.555568        0 0.831471
  outer loop
   vertex   54.148        0  84.7716
   vertex  55.1213        0  84.1213
   vertex  55.1213      1.5  84.1213
  endloop
 endfacet
 facet normal 0.555568       -0 0.831471
  outer loop
   vertex   54.148        0  84.7716
   vertex  55.1213      1.5  84.1213
   vertex   54.148      1.5  84.7716
  endloop
 endfacet
 facet normal 0.980785        0 0.195092
  outer loop
   vertex  55.7716        0   83.148
   vertex       56        0       82
   vertex       56      1.5       82
  endloop
 endfacet
 facet normal 0.831471        0 0.555569
  outer loop
   vertex  55.1213      1.5  84.1213
   vertex  55.1213        0  84.1213
   vertex  55.7716      1.5   83.148
  endloop
 endfacet
 facet normal 0.980785        0 0.195092
  outer loop
   vertex       56      1.5       82
   vertex  55.7716      1.5   83.148
   vertex  55.7716        0   83.148
  endloop
 endfacet
 facet normal 0.831471        0 0.555569
  outer loop
   vertex  55.7716      1.5   83.148
   vertex  55.1213        0  84.1213
   vertex  55.7716        0   83.148
  endloop
 endfacet
 facet normal        0        0        1
  outer loop
   vertex        3        0       85
   vertex     19.9        0       85
   vertex        3      1.5       85
  endloop
 endfacet
 facet normal        0        0        1
  outer loop
   vertex        3      1.5       85
   vertex     19.9        0       85
   vertex     34.5        0       85
  endloop
 endfacet
 facet normal        0        0        1
  outer loop
   vertex     34.5        0       85
   vertex       53        0       85
   vertex       53      1.5       85
  endloop
 endfacet
 facet normal        0       -0        1
  outer loop
   vertex     34.5        0       85
   vertex       53      1.5       85
   vertex        3      1.5       85
  endloop
 endfacet
 facet normal -0.980785        0 0.195091
  outer loop
   vertex -1.66533e-15        0       82
   vertex 0.228361        0   83.148
   vertex 0.228361      1.5   83.148
  endloop
 endfacet
 facet normal -0.980785 1.08889e-15 0.195091
  outer loop
   vertex -1.66533e-15        0       82
   vertex 0.228361      1.5   83.148
   vertex        0      1.5       82
  endloop
 endfacet
 facet normal -0.831471        0 0.555569
  outer loop
   vertex 0.228361        0   83.148
   vertex  0.87868        0  84.1213
   vertex  0.87868      1.5  84.1213
  endloop
 endfacet
 facet normal -0.831471        0 0.555569
  outer loop
   vertex 0.228361        0   83.148
   vertex  0.87868      1.5  84.1213
   vertex 0.228361      1.5   83.148
  endloop
 endfacet
 facet normal -0.195092        0 0.980785
  outer loop
   vertex  1.85195        0  84.7716
   vertex        3        0       85
   vertex        3      1.5       85
  endloop
 endfacet
 facet normal -0.555568        0 0.831471
  outer loop
   vertex  0.87868      1.5  84.1213
   vertex  0.87868        0  84.1213
   vertex  1.85195      1.5  84.7716
  endloop
 endfacet
 facet normal -0.195092        0 0.980785
  outer loop
   vertex        3      1.5       85
   vertex  1.85195      1.5  84.7716
   vertex  1.85195        0  84.7716
  endloop
 endfacet
 facet normal -0.555568        0 0.831471
  outer loop
   vertex  1.85195      1.5  84.7716
   vertex  0.87868        0  84.1213
   vertex  1.85195        0  84.7716
  endloop
 endfacet
 facet normal       -1 1.11022e-15 -2.10802e-17
  outer loop
   vertex        0        0        3
   vertex -1.66533e-15        0       82
   vertex        0      1.5       82
  endloop
 endfacet
 facet normal       -1        0       -0
  outer loop
   vertex        0      1.5       82
   vertex        0      1.5        3
   vertex        0        0        3
  endloop
 endfacet
 facet normal -0.194947 -0.038258 -0.980067
  outer loop
   vertex        3        0 -5.55112e-16
   vertex  1.85195        0 0.228361
   vertex     2.45      1.5 0.0508476
  endloop
 endfacet
 facet normal -0.0920576 3.68503e-16 -0.995754
  outer loop
   vertex     2.45      1.5 0.0508476
   vertex        3      1.5        0
   vertex        3        0 -5.55112e-16
  endloop
 endfacet
 facet normal -0.503874 0.0993517 -0.858044
  outer loop
   vertex  1.85195        0 0.228361
   vertex 0.692404      1.5  1.08297
   vertex     2.45      1.5 0.0508476
  endloop
 endfacet
 facet normal -0.831153 -0.0275791 -0.555359
  outer loop
   vertex  0.87868        0  0.87868
   vertex 0.228361        0  1.85195
   vertex 0.692404      1.5  1.08297
  endloop
 endfacet
 facet normal -0.934179 0.116024 -0.337412
  outer loop
   vertex 0.228361        0  1.85195
   vertex        0      1.5        3
   vertex 0.692404      1.5  1.08297
  endloop
 endfacet
 facet normal -0.980785       -0 -0.19509
  outer loop
   vertex        0      1.5        3
   vertex 0.228361        0  1.85195
   vertex        0        0        3
  endloop
 endfacet
 facet normal -0.555027 0.0442053 -0.830657
  outer loop
   vertex  0.87868        0  0.87868
   vertex 0.692404      1.5  1.08297
   vertex  1.85195        0 0.228361
  endloop
 endfacet
 facet normal        0       -1       -0
  outer loop
   vertex  0.87868        0  84.1213
   vertex 0.228361        0   83.148
   vertex  2.22967        0  82.0262
  endloop
 endfacet
 facet normal        0       -1        0
  outer loop
   vertex  2.52773        0  82.4723
   vertex  2.97381        0  82.7703
   vertex  1.85195        0  84.7716
  endloop
 endfacet
 facet normal        0       -1        0
  outer loop
   vertex        3        0       85
   vertex  1.85195        0  84.7716
   vertex  2.97381        0  82.7703
  endloop
 endfacet
 facet normal        0       -1        0
  outer loop
   vertex  2.22967        0  82.0262
   vertex  1.85195        0  84.7716
   vertex  0.87868        0  84.1213
  endloop
 endfacet
 facet normal        0       -1        0
  outer loop
   vertex  1.85195        0  84.7716
   vertex  2.22967        0  82.0262
   vertex  2.52773        0  82.4723
  endloop
 endfacet
 facet normal        0       -1        0
  outer loop
   vertex -1.66533e-15        0       82
   vertex    2.125        0     81.5
   vertex 0.228361        0   83.148
  endloop
 endfacet
 facet normal       -0       -1        0
  outer loop
   vertex  2.22967        0  82.0262
   vertex 0.228361        0   83.148
   vertex    2.125        0     81.5
  endloop
 endfacet
 facet normal        0       -1        0
  outer loop
   vertex  2.22967        0  80.9738
   vertex    2.125        0     81.5
   vertex -1.66533e-15        0       82
  endloop
 endfacet
 facet normal        0       -1        0
  outer loop
   vertex  2.52773        0  24.4723
   vertex  2.52773        0  80.5277
   vertex -1.66533e-15        0       82
  endloop
 endfacet
 facet normal        0       -1        0
  outer loop
   vertex -1.66533e-15        0       82
   vertex  2.52773        0  80.5277
   vertex  2.22967        0  80.9738
  endloop
 endfacet
 facet normal       -0       -1        0
  outer loop
   vertex  2.97381        0  80.2297
   vertex  2.52773        0  80.5277
   vertex  2.52773        0  24.4723
  endloop
 endfacet
 facet normal        0       -1        0
  outer loop
   vertex  4.02619        0  82.7703
   vertex        3        0       85
   vertex      3.5        0   82.875
  endloop
 endfacet
 facet normal        0       -1        0
  outer loop
   vertex  4.02619        0  82.7703
   vertex  4.47227        0  82.4723
   vertex        3        0       85
  endloop
 endfacet
 facet normal       -0       -1        0
  outer loop
   vertex     19.9        0       85
   vertex        3        0       85
   vertex  4.47227        0  82.4723
  endloop
 endfacet
 facet normal        0       -1        0
  outer loop
   vertex  4.77033        0  82.0262
   vertex     19.9        0       85
   vertex  4.47227        0  82.4723
  endloop
 endfacet
 facet normal        0       -1       -0
  outer loop
   vertex  4.47227        0  80.5277
   vertex  4.02619        0  80.2297
   vertex     19.9        0     70.4
  endloop
 endfacet
 facet normal        0       -1        0
  outer loop
   vertex     19.9        0     70.4
   vertex  4.02619        0  80.2297
   vertex      3.5        0   80.125
  endloop
 endfacet
 facet normal        0       -1        0
  outer loop
   vertex     19.9        0       85
   vertex  4.77033        0  82.0262
   vertex    4.875        0     81.5
  endloop
 endfacet
 facet normal        0       -1       -0
  outer loop
   vertex    4.875        0     81.5
   vertex  4.77033        0  80.9738
   vertex     19.9        0     70.4
  endloop
 endfacet
 facet normal        0       -1       -0
  outer loop
   vertex  4.77033        0  80.9738
   vertex  4.47227        0  80.5277
   vertex     19.9        0     70.4
  endloop
 endfacet
 facet normal        0       -1        0
  outer loop
   vertex    4.875        0     81.5
   vertex     19.9        0     70.4
   vertex     19.9        0       85
  endloop
 endfacet
 facet normal        0       -1       -0
  outer loop
   vertex        3        0       85
   vertex  2.97381        0  82.7703
   vertex      3.5        0   82.875
  endloop
 endfacet
 facet normal        0       -1        0
  outer loop
   vertex      3.5        0   24.875
   vertex      3.5        0   80.125
   vertex  2.97381        0  80.2297
  endloop
 endfacet
 facet normal        0       -1        0
  outer loop
   vertex -1.66533e-15        0       82
   vertex    2.125        0     23.5
   vertex  2.22967        0  24.0262
  endloop
 endfacet
 facet normal       -0       -1        0
  outer loop
   vertex  2.97381        0  24.7703
   vertex  2.97381        0  80.2297
   vertex  2.52773        0  24.4723
  endloop
 endfacet
 facet normal        0       -1        0
  outer loop
   vertex  2.22967        0  24.0262
   vertex  2.52773        0  24.4723
   vertex -1.66533e-15        0       82
  endloop
 endfacet
 facet normal        0       -1        0
  outer loop
   vertex        0        0        3
   vertex  2.22967        0  22.9738
   vertex    2.125        0     23.5
  endloop
 endfacet
 facet normal        0       -1        0
  outer loop
   vertex 0.228361        0  1.85195
   vertex  0.87868        0  0.87868
   vertex        0        0        3
  endloop
 endfacet
 facet normal        0       -1        0
  outer loop
   vertex  1.85195        0 0.228361
   vertex        0        0        3
   vertex  0.87868        0  0.87868
  endloop
 endfacet
 facet normal        0       -1        0
  outer loop
   vertex        3        0 -5.55112e-16
   vertex        0        0        3
   vertex  1.85195        0 0.228361
  endloop
 endfacet
 facet normal        0       -1       -0
  outer loop
   vertex  2.52773        0  22.5277
   vertex        0        0        3
   vertex  2.97381        0  22.2297
  endloop
 endfacet
 facet normal        0       -1       -0
  outer loop
   vertex  2.97381        0  22.2297
   vertex        0        0        3
   vertex      3.5        0   22.125
  endloop
 endfacet
 facet normal       -0       -1        0
  outer loop
   vertex  2.52773        0  22.5277
   vertex  2.22967        0  22.9738
   vertex        0        0        3
  endloop
 endfacet
 facet normal        0       -1        0
  outer loop
   vertex -1.66533e-15        0       82
   vertex        0        0        3
   vertex    2.125        0     23.5
  endloop
 endfacet
 facet normal        0       -1        0
  outer loop
   vertex     19.9        0     70.4
   vertex      3.5        0   24.875
   vertex  4.02619        0  24.7703
  endloop
 endfacet
 facet normal        0       -1        0
  outer loop
   vertex  4.77033        0  24.0262
   vertex     19.9        0     70.4
   vertex  4.47227        0  24.4723
  endloop
 endfacet
 facet normal        0       -1        0
  outer loop
   vertex  4.02619        0  24.7703
   vertex  4.47227        0  24.4723
   vertex     19.9        0     70.4
  endloop
 endfacet
 facet normal       -0       -1        0
  outer loop
   vertex  51.2297        0  24.0262
   vertex  4.77033        0  24.0262
   vertex    4.875        0     23.5
  endloop
 endfacet
 facet normal       -0       -1        0
  outer loop
   vertex      3.5        0   24.875
   vertex  2.97381        0  80.2297
   vertex  2.97381        0  24.7703
  endloop
 endfacet
 facet normal        0       -1        0
  outer loop
   vertex        3        0 -5.55112e-16
   vertex  4.02619        0  22.2297
   vertex        0        0        3
  endloop
 endfacet
 facet normal        0       -1        0
  outer loop
   vertex  4.02619        0  22.2297
   vertex      3.5        0   22.125
   vertex        0        0        3
  endloop
 endfacet
 facet normal        0       -1        0
  outer loop
   vertex  4.47227        0  22.5277
   vertex  4.02619        0  22.2297
   vertex        3        0 -5.55112e-16
  endloop
 endfacet
 facet normal       -0       -1        0
  outer loop
   vertex  51.2297        0  22.9738
   vertex  4.77033        0  22.9738
   vertex        3        0 -5.55112e-16
  endloop
 endfacet
 facet normal        0       -1        0
  outer loop
   vertex        3        0 -5.55112e-16
   vertex  4.77033        0  22.9738
   vertex  4.47227        0  22.5277
  endloop
 endfacet
 facet normal        0       -1        0
  outer loop
   vertex  4.77033        0  22.9738
   vertex   51.125        0     23.5
   vertex    4.875        0     23.5
  endloop
 endfacet
 facet normal        0       -1       -0
  outer loop
   vertex     19.9        0     70.4
   vertex  4.77033        0  24.0262
   vertex     34.5        0     70.4
  endloop
 endfacet
 facet normal       -0       -1        0
  outer loop
   vertex     19.9        0     70.4
   vertex      3.5        0   80.125
   vertex      3.5        0   24.875
  endloop
 endfacet
 facet normal        0       -1        0
  outer loop
   vertex  51.2297        0  82.0262
   vertex  51.5277        0  82.4723
   vertex     34.5        0       85
  endloop
 endfacet
 facet normal       -0       -1        0
  outer loop
   vertex       53        0       85
   vertex     34.5        0       85
   vertex  51.5277        0  82.4723
  endloop
 endfacet
 facet normal       -0       -1        0
  outer loop
   vertex     52.5        0   82.875
   vertex       53        0       85
   vertex  51.9738        0  82.7703
  endloop
 endfacet
 facet normal        0       -1        0
  outer loop
   vertex  51.5277        0  82.4723
   vertex  51.9738        0  82.7703
   vertex       53        0       85
  endloop
 endfacet
 facet normal        0       -1        0
  outer loop
   vertex     34.5        0       85
   vertex   51.125        0     81.5
   vertex  51.2297        0  82.0262
  endloop
 endfacet
 facet normal        0       -1        0
  outer loop
   vertex     34.5        0     70.4
   vertex   51.125        0     81.5
   vertex     34.5        0       85
  endloop
 endfacet
 facet normal        0       -1        0
  outer loop
   vertex     52.5        0   24.875
   vertex     52.5        0   80.125
   vertex  51.9738        0  80.2297
  endloop
 endfacet
 facet normal       -0       -1        0
  outer loop
   vertex  51.5277        0  80.5277
   vertex  51.2297        0  80.9738
   vertex     34.5        0     70.4
  endloop
 endfacet
 facet normal       -0       -1        0
  outer loop
   vertex  51.2297        0  80.9738
   vertex   51.125        0     81.5
   vertex     34.5        0     70.4
  endloop
 endfacet
 facet normal        0       -1        0
  outer loop
   vertex  53.0262        0  82.7703
   vertex       53        0       85
   vertex     52.5        0   82.875
  endloop
 endfacet
 facet normal       -0       -1        0
  outer loop
   vertex  51.9738        0  80.2297
   vertex  51.5277        0  80.5277
   vertex     34.5        0     70.4
  endloop
 endfacet
 facet normal        0       -1        0
  outer loop
   vertex   54.148        0  84.7716
   vertex  53.0262        0  82.7703
   vertex  53.4723        0  82.4723
  endloop
 endfacet
 facet normal       -0       -1        0
  outer loop
   vertex  55.1213        0  84.1213
   vertex   54.148        0  84.7716
   vertex  53.7703        0  82.0262
  endloop
 endfacet
 facet normal        0       -1        0
  outer loop
   vertex  53.4723        0  82.4723
   vertex  53.7703        0  82.0262
   vertex   54.148        0  84.7716
  endloop
 endfacet
 facet normal       -0       -1        0
  outer loop
   vertex   54.148        0  84.7716
   vertex       53        0       85
   vertex  53.0262        0  82.7703
  endloop
 endfacet
 facet normal       -0       -1        0
  outer loop
   vertex  55.7716        0   83.148
   vertex  55.1213        0  84.1213
   vertex  53.7703        0  82.0262
  endloop
 endfacet
 facet normal        0       -1       -0
  outer loop
   vertex  53.4723        0  80.5277
   vertex  53.0262        0  80.2297
   vertex  53.4723        0  24.4723
  endloop
 endfacet
 facet normal        0       -1        0
  outer loop
   vertex       56        0       82
   vertex   53.875        0     81.5
   vertex  53.7703        0  80.9738
  endloop
 endfacet
 facet normal        0       -1        0
  outer loop
   vertex  55.7716        0   83.148
   vertex  53.7703        0  82.0262
   vertex   53.875        0     81.5
  endloop
 endfacet
 facet normal        0       -1        0
  outer loop
   vertex  53.4723        0  80.5277
   vertex       56        0       82
   vertex  53.7703        0  80.9738
  endloop
 endfacet
 facet normal        0       -1        0
  outer loop
   vertex   53.875        0     81.5
   vertex       56        0       82
   vertex  55.7716        0   83.148
  endloop
 endfacet
 facet normal        0       -1        0
  outer loop
   vertex       56        0       82
   vertex  53.4723        0  80.5277
   vertex  53.4723        0  24.4723
  endloop
 endfacet
 facet normal        0       -1        0
  outer loop
   vertex  53.0262        0  24.7703
   vertex  53.0262        0  80.2297
   vertex     52.5        0   80.125
  endloop
 endfacet
 facet normal        0       -1        0
  outer loop
   vertex    4.875        0     23.5
   vertex   51.125        0     23.5
   vertex  51.2297        0  24.0262
  endloop
 endfacet
 facet normal       -0       -1        0
  outer loop
   vertex  51.5277        0  24.4723
   vertex     34.5        0     70.4
   vertex  51.2297        0  24.0262
  endloop
 endfacet
 facet normal        0       -1        0
  outer loop
   vertex     34.5        0     70.4
   vertex  51.5277        0  24.4723
   vertex  51.9738        0  24.7703
  endloop
 endfacet
 facet normal        0       -1       -0
  outer loop
   vertex  51.9738        0  80.2297
   vertex     34.5        0     70.4
   vertex  51.9738        0  24.7703
  endloop
 endfacet
 facet normal        0       -1        0
  outer loop
   vertex  51.9738        0  80.2297
   vertex  51.9738        0  24.7703
   vertex     52.5        0   24.875
  endloop
 endfacet
 facet normal        0       -1        0
  outer loop
   vertex       53        0 -2.22045e-15
   vertex  51.5277        0  22.5277
   vertex  51.2297        0  22.9738
  endloop
 endfacet
 facet normal        0       -1        0
  outer loop
   vertex        3        0 -5.55112e-16
   vertex       53        0 -2.22045e-15
   vertex  51.2297        0  22.9738
  endloop
 endfacet
 facet normal       -0       -1        0
  outer loop
   vertex       56        0        3
   vertex  51.9738        0  22.2297
   vertex       53        0 -2.22045e-15
  endloop
 endfacet
 facet normal        0       -1        0
  outer loop
   vertex  51.9738        0  22.2297
   vertex       56        0        3
   vertex     52.5        0   22.125
  endloop
 endfacet
 facet normal        0       -1        0
  outer loop
   vertex  51.5277        0  22.5277
   vertex       53        0 -2.22045e-15
   vertex  51.9738        0  22.2297
  endloop
 endfacet
 facet normal        0       -1        0
  outer loop
   vertex  51.2297        0  22.9738
   vertex   51.125        0     23.5
   vertex  4.77033        0  22.9738
  endloop
 endfacet
 facet normal        0       -1        0
  outer loop
   vertex  51.2297        0  24.0262
   vertex     34.5        0     70.4
   vertex  4.77033        0  24.0262
  endloop
 endfacet
 facet normal        0       -1        0
  outer loop
   vertex  53.0262        0  24.7703
   vertex     52.5        0   80.125
   vertex     52.5        0   24.875
  endloop
 endfacet
 facet normal        0       -1        0
  outer loop
   vertex       56        0       82
   vertex  53.7703        0  24.0262
   vertex   53.875        0     23.5
  endloop
 endfacet
 facet normal        0       -1        0
  outer loop
   vertex       56        0        3
   vertex   53.875        0     23.5
   vertex  53.7703        0  22.9738
  endloop
 endfacet
 facet normal        0       -1        0
  outer loop
   vertex  53.0262        0  24.7703
   vertex  53.4723        0  24.4723
   vertex  53.0262        0  80.2297
  endloop
 endfacet
 facet normal       -0       -1        0
  outer loop
   vertex   54.148        0 0.228361
   vertex       56        0        3
   vertex       53        0 -2.22045e-15
  endloop
 endfacet
 facet normal        0       -1       -0
  outer loop
   vertex  53.4723        0  22.5277
   vertex  53.0262        0  22.2297
   vertex       56        0        3
  endloop
 endfacet
 facet normal        0       -1       -0
  outer loop
   vertex  53.0262        0  22.2297
   vertex     52.5        0   22.125
   vertex       56        0        3
  endloop
 endfacet
 facet normal       -0       -1        0
  outer loop
   vertex  55.7716        0  1.85195
   vertex       56        0        3
   vertex  55.1213        0  0.87868
  endloop
 endfacet
 facet normal        0       -1        0
  outer loop
   vertex   54.148        0 0.228361
   vertex  55.1213        0  0.87868
   vertex       56        0        3
  endloop
 endfacet
 facet normal        0       -1        0
  outer loop
   vertex       56        0        3
   vertex  53.7703        0  22.9738
   vertex  53.4723        0  22.5277
  endloop
 endfacet
 facet normal        0       -1        0
  outer loop
   vertex       56        0        3
   vertex       56        0       82
   vertex   53.875        0     23.5
  endloop
 endfacet
 facet normal        0       -1        0
  outer loop
   vertex  53.4723        0  24.4723
   vertex  53.7703        0  24.0262
   vertex       56        0       82
  endloop
 endfacet
endsolid Body1 written by HOOPS Exchange
